<svg width="313" height="308" viewBox="0 0 313 308" fill="none" xmlns="http://www.w3.org/2000/svg">
<path fill-rule="evenodd" clip-rule="evenodd" d="M260.458 227.432L270.865 236.654L284.182 232.758C284.867 232.554 285.565 232.758 286.037 233.293C286.519 233.838 286.626 234.557 286.346 235.226L280.83 248.026L288.637 259.553C289.043 260.145 289.072 260.884 288.704 261.506C288.338 262.118 287.69 262.459 286.975 262.389L273.166 261.068L264.681 272.099C264.235 272.671 263.55 272.915 262.855 272.758C262.15 272.604 261.638 272.087 261.482 271.39L258.459 257.774L245.402 253.059C244.727 252.818 244.282 252.233 244.215 251.517C244.146 250.795 244.487 250.144 245.093 249.785L257.037 242.68L257.462 228.745C257.482 228.016 257.888 227.414 258.546 227.131C259.201 226.84 259.926 226.957 260.458 227.432Z" fill="#FDC72E"/>
<path fill-rule="evenodd" clip-rule="evenodd" d="M284.77 262.175L270.18 260.787L261.658 271.856C261.579 271.711 261.521 271.552 261.485 271.378L258.459 257.774L245.402 253.06C244.727 252.818 244.282 252.234 244.215 251.517C244.146 250.796 244.487 250.144 245.093 249.786L257.037 242.68L257.432 229.629L266.719 237.871L280.036 233.973C280.723 233.769 281.428 233.973 281.901 234.508C282.376 235.052 282.49 235.771 282.2 236.433L276.694 249.241L284.501 260.767C284.79 261.195 284.884 261.7 284.77 262.175Z" fill="#FCDB35"/>
<path fill-rule="evenodd" clip-rule="evenodd" d="M210.5 243.711L218.733 254.936L232.572 253.926C233.287 253.876 233.925 254.227 234.281 254.859C234.627 255.481 234.59 256.21 234.175 256.802L226.108 268.154L231.335 281.069C231.607 281.74 231.468 282.459 230.988 282.992C230.494 283.517 229.799 283.703 229.111 283.489L215.883 279.28L205.283 288.271C204.731 288.736 204.007 288.833 203.359 288.532C202.71 288.231 202.315 287.619 202.305 286.9L202.198 272.943L190.421 265.579C189.812 265.199 189.493 264.539 189.579 263.828C189.666 263.109 190.121 262.534 190.806 262.313L203.957 257.902L207.282 244.353C207.455 243.654 207.987 243.148 208.692 243.012C209.39 242.867 210.067 243.129 210.5 243.711Z" fill="#FDC72E"/>
<path fill-rule="evenodd" clip-rule="evenodd" d="M227.003 282.818L213.023 278.377L202.386 287.396C202.335 287.241 202.308 287.075 202.307 286.898L202.2 272.943L190.422 265.579C189.814 265.199 189.495 264.539 189.581 263.828C189.668 263.109 190.123 262.534 190.808 262.313L203.959 257.902L207.081 245.229L214.436 255.247L228.274 254.237C228.989 254.187 229.625 254.538 229.974 255.17C230.332 255.792 230.293 256.521 229.875 257.113L221.81 268.465L227.027 281.38C227.23 281.865 227.21 282.37 227.008 282.818" fill="#FCDB35"/>
<path fill-rule="evenodd" clip-rule="evenodd" d="M156.376 307.569C102.62 307.569 49.4999 293.771 2.74746 267.648C0.662042 266.479 -0.0924684 263.827 1.06527 261.727C2.23538 259.63 4.86504 258.871 6.96283 260.036C52.419 285.442 104.087 298.864 156.376 298.864C208.665 298.864 260.325 285.444 305.799 260.041C307.886 258.874 310.524 259.633 311.686 261.732C312.844 263.83 312.089 266.484 310.004 267.651C263.252 293.774 210.132 307.569 156.376 307.569ZM156.376 242.499C109.114 242.499 63.0292 229.253 23.0995 204.19C21.0709 202.916 20.4525 200.235 21.7166 198.194C22.9832 196.154 25.65 195.532 27.6785 196.801C66.2402 220.993 110.739 233.791 156.376 233.791C202.017 233.791 246.516 220.993 285.071 196.804C287.099 195.53 289.768 196.152 291.032 198.194C292.299 200.235 291.681 202.916 289.652 204.19C249.725 229.251 203.638 242.499 156.376 242.499Z" fill="#909CD1"/>
<path fill-rule="evenodd" clip-rule="evenodd" d="M158.009 249.405L163.914 262.031L177.673 263.77C178.39 263.867 178.94 264.332 179.162 265.014C179.385 265.703 179.212 266.412 178.68 266.9L168.572 276.443L171.169 290.144C171.306 290.856 171.046 291.537 170.464 291.96C169.886 292.381 169.153 292.428 168.522 292.08L156.376 285.355L144.23 292.08C143.601 292.428 142.869 292.378 142.288 291.963C141.706 291.535 141.447 290.856 141.583 290.147L144.18 276.443L134.062 266.9C133.543 266.412 133.357 265.706 133.58 265.014C133.803 264.332 134.364 263.867 135.079 263.77L148.838 262.029L154.743 249.405C155.04 248.756 155.659 248.365 156.376 248.365C157.093 248.365 157.712 248.756 158.009 249.405Z" fill="#FDC72E"/>
<path fill-rule="evenodd" clip-rule="evenodd" d="M166.59 291.01L153.746 283.894L141.55 290.651C141.534 290.487 141.544 290.318 141.582 290.144L144.18 276.443L134.072 266.9C133.542 266.412 133.367 265.705 133.589 265.014C133.812 264.332 134.371 263.867 135.079 263.77L148.838 262.028L154.364 250.211L159.634 261.496L173.393 263.237C174.098 263.322 174.66 263.79 174.88 264.481C175.102 265.158 174.929 265.87 174.397 266.365L164.279 275.908L166.889 289.611C166.988 290.116 166.879 290.612 166.59 291.01Z" fill="#FCDB35"/>
<path fill-rule="evenodd" clip-rule="evenodd" d="M52.2834 227.442L41.8761 236.665L28.5596 232.759C27.8743 232.565 27.1767 232.759 26.6943 233.304C26.2218 233.848 26.1154 234.567 26.395 235.227L31.9041 248.027L24.0943 259.561C23.6985 260.155 23.6688 260.884 24.0374 261.506C24.4036 262.128 25.0517 262.459 25.7691 262.389L39.5754 261.078L48.0606 272.107C48.5059 272.679 49.1911 272.925 49.8862 272.769C50.5814 272.615 51.1034 272.097 51.2592 271.388L54.2822 257.774L67.3389 253.06C68.0069 252.818 68.4596 252.244 68.5264 251.525C68.5956 250.806 68.2542 250.156 67.6358 249.783L55.7046 242.693L55.2791 228.746C55.2593 228.024 54.8536 227.425 54.1956 227.131C53.5277 226.85 52.8152 226.967 52.2735 227.442H52.2834Z" fill="#FDC72E"/>
<path fill-rule="evenodd" clip-rule="evenodd" d="M23.8244 260.972L38.4149 259.581L46.9397 270.652C47.0155 270.505 47.0733 270.346 47.1128 270.175L50.1383 256.559L63.1926 251.847C63.8679 251.603 64.3132 251.031 64.38 250.312C64.4493 249.59 64.1203 248.941 63.5018 248.57L51.5583 241.477L51.1625 228.426L41.8758 236.666L28.5593 232.76C27.874 232.566 27.1764 232.77 26.694 233.305C26.2215 233.849 26.1152 234.568 26.3947 235.228L31.9039 248.028L24.104 259.562C23.8071 259.989 23.7181 260.487 23.8244 260.972Z" fill="#FCDB35"/>
<path fill-rule="evenodd" clip-rule="evenodd" d="M102.241 243.721L93.9986 254.937L80.1701 253.936C79.4551 253.887 78.8095 254.228 78.4607 254.857C78.1143 255.491 78.1514 256.22 78.567 256.803L86.6366 268.155L81.407 281.079C81.1348 281.751 81.2734 282.47 81.7533 282.995C82.2382 283.527 82.9432 283.714 83.6309 283.5L96.8485 279.29L107.461 288.279C108.01 288.747 108.725 288.844 109.383 288.543C110.031 288.242 110.427 287.62 110.437 286.901L110.543 272.954L122.321 265.59C122.93 265.209 123.239 264.547 123.162 263.828C123.076 263.119 122.621 262.547 121.935 262.323L108.785 257.902L105.45 244.363C105.277 243.664 104.755 243.159 104.05 243.012C103.345 242.875 102.664 243.137 102.241 243.721Z" fill="#FDC72E"/>
<path fill-rule="evenodd" clip-rule="evenodd" d="M81.4366 282.517L95.4087 278.066L106.058 287.095C106.106 286.929 106.129 286.761 106.128 286.59L106.241 272.643L118.012 265.279C118.62 264.898 118.94 264.236 118.853 263.517C118.776 262.798 118.311 262.236 117.636 262.012L104.475 257.591L101.363 244.918L93.9986 254.937L80.1701 253.937C79.4551 253.887 78.8095 254.228 78.4607 254.857C78.1143 255.491 78.1514 256.22 78.567 256.803L86.6366 268.155L81.407 281.079C81.214 281.554 81.2239 282.069 81.4267 282.517H81.4366Z" fill="#FCDB35"/>
<ellipse cx="156.376" cy="23.8758" rx="21.2064" ry="23.4793" fill="#D9C5BF"/>
<ellipse cx="151.351" cy="23.7052" rx="16.1774" ry="22.881" fill="#F0E3DF"/>
<path fill-rule="evenodd" clip-rule="evenodd" d="M147.389 48.5024L132.083 52.2839C125.879 53.8861 119.086 55.6923 115.2 57.9862C110.128 60.9716 108.322 64.0217 107.704 72.1447C106.91 86.4997 107.17 99.8422 107.751 113.545C108.04 120.347 113.597 125.711 120.36 125.711H192.382C199.156 125.711 204.712 120.347 205.001 113.545C205.57 99.8422 205.832 86.4997 205.051 72.1471C204.432 64.0217 202.626 60.9691 197.553 57.9862C193.669 55.6923 186.873 53.8861 180.659 52.2815L165.353 48.4999C162.271 47.7336 159.322 47.3555 156.376 47.3555C153.43 47.3555 150.481 47.7361 147.389 48.5024Z" fill="#FDC72E"/>
<path fill-rule="evenodd" clip-rule="evenodd" d="M147.389 48.5019L132.083 52.2835C125.879 53.8857 119.086 55.6919 115.199 57.9857C110.128 60.9711 108.322 64.0213 107.704 72.1442C106.92 86.4992 107.169 99.8342 107.751 113.545C108.04 120.347 113.596 125.711 120.37 125.711H182.7C189.463 125.711 195.029 120.347 195.309 113.545C195.89 99.8317 196.15 86.4992 195.368 72.1467C194.74 64.0213 192.931 60.9687 187.867 57.9857C183.974 55.6919 177.181 53.8857 170.976 52.281L155.671 48.4994C154.267 48.1478 152.889 47.8791 151.535 47.6934C150.174 47.88 148.801 48.1511 147.389 48.5019Z" fill="#FCDB35"/>
<path fill-rule="evenodd" clip-rule="evenodd" d="M122.459 125.713V92.4827C122.459 90.0819 124.389 88.1289 126.789 88.1289C129.173 88.1289 131.118 90.0819 131.118 92.4827V125.711L122.459 125.713ZM181.633 125.713H190.291V92.4827C190.291 90.0819 188.362 88.1289 185.962 88.1289C183.577 88.1289 181.633 90.0819 181.633 92.4827V125.713Z" fill="#F19A00"/>
<ellipse cx="75.2517" cy="88.7547" rx="21.2048" ry="23.4793" fill="#D9C5BF"/>
<ellipse cx="70.2233" cy="88.5841" rx="16.1803" ry="22.881" fill="#F0E3DF"/>
<path fill-rule="evenodd" clip-rule="evenodd" d="M66.2646 113.381L50.9592 117.163C44.7549 118.765 37.9618 120.571 34.0779 122.865C29.0041 125.851 27.1958 128.911 26.5773 137.026C25.7857 151.381 26.0455 164.721 26.6268 178.424C26.9064 185.229 32.4724 190.59 39.2358 190.59H111.258C118.022 190.59 123.588 185.229 123.877 178.424C124.446 164.721 124.708 151.381 123.927 137.026C123.308 128.911 121.502 125.848 116.428 122.865C112.545 120.571 105.742 118.765 99.5348 117.16L84.2294 113.379C81.147 112.613 78.1982 112.234 75.2519 112.234C72.3056 112.234 69.3569 112.615 66.2646 113.381Z" fill="#4EB1FC"/>
<path fill-rule="evenodd" clip-rule="evenodd" d="M66.2646 113.381L50.9592 117.162C44.7549 118.765 37.9618 120.571 34.0779 122.865C29.0041 125.85 27.1958 128.9 26.5773 137.026C25.7857 151.381 26.0455 164.721 26.6268 178.424C26.9064 185.228 32.4724 190.59 39.2358 190.59H101.576C108.339 190.59 113.905 185.228 114.185 178.424C114.766 164.721 115.026 151.381 114.234 137.026C113.616 128.9 111.81 125.848 106.736 122.865C102.852 120.571 96.0567 118.765 89.8523 117.16L74.5469 113.378C73.1368 113.03 71.7639 112.756 70.4008 112.572C69.0468 112.76 67.6681 113.029 66.2646 113.381Z" fill="#85CAFF"/>
<path fill-rule="evenodd" clip-rule="evenodd" d="M41.3342 190.592V157.364C41.3342 154.965 43.2663 153.01 45.6634 153.01C48.0506 153.01 49.9925 154.965 49.9925 157.364V190.592H41.3342ZM100.513 190.592H109.171V157.364C109.171 154.965 107.229 153.01 104.842 153.01C102.445 153.01 100.513 154.965 100.513 157.364V190.592Z" fill="#2A92FA"/>
<ellipse cx="237.501" cy="88.7547" rx="21.2052" ry="23.4793" fill="#D9C5BF"/>
<ellipse cx="232.474" cy="88.5841" rx="16.1774" ry="22.881" fill="#F0E3DF"/>
<path fill-rule="evenodd" clip-rule="evenodd" d="M228.521 113.381L213.216 117.163C207.012 118.765 200.209 120.571 196.322 122.865C191.251 125.851 189.445 128.911 188.827 137.026C188.042 151.381 188.302 164.721 188.874 178.424C189.163 185.229 194.719 190.59 201.493 190.59H273.515C280.278 190.59 285.844 185.229 286.124 178.424C286.705 164.721 286.965 151.381 286.173 137.026C285.555 128.911 283.749 125.848 278.675 122.865C274.791 120.571 267.996 118.765 261.792 117.16L246.486 113.379C243.394 112.613 240.445 112.234 237.499 112.234C234.553 112.234 231.604 112.615 228.521 113.381Z" fill="#4EB1FC"/>
<path fill-rule="evenodd" clip-rule="evenodd" d="M228.521 113.381L213.216 117.162C207.012 118.765 200.209 120.571 196.322 122.865C191.251 125.85 189.445 128.9 188.827 137.026C188.042 151.381 188.302 164.721 188.874 178.424C189.163 185.228 194.719 190.59 201.493 190.59H263.823C270.596 190.59 276.152 185.228 276.442 178.424C277.01 164.721 277.273 151.381 276.491 137.026C275.873 128.9 274.067 125.848 268.99 122.865C265.107 120.571 258.304 118.765 252.099 117.16L236.794 113.378C235.391 113.03 234.021 112.756 232.658 112.572C231.299 112.76 229.92 113.029 228.521 113.381Z" fill="#85CAFF"/>
<path fill-rule="evenodd" clip-rule="evenodd" d="M203.581 190.592V157.364C203.581 154.965 205.523 153.01 207.91 153.01C210.307 153.01 212.239 154.965 212.239 157.364V190.592H203.581ZM262.759 190.592H271.418V157.364C271.418 154.965 269.485 153.01 267.088 153.01C264.701 153.01 262.759 154.965 262.759 157.364V190.592Z" fill="#2A92FA"/>
</svg>
