<svg width="283" height="272" viewBox="0 0 283 272" fill="none" xmlns="http://www.w3.org/2000/svg">
<path d="M174.763 243.872C173.049 239.331 170.559 235.171 167.457 231.551C162.321 225.562 159.39 217.994 159.39 210.105V177.279H112.59V210.105C112.59 217.994 109.659 225.562 104.523 231.551C101.422 235.171 98.9339 239.331 97.22 243.872H174.763Z" fill="black"/>
<rect x="255.493" y="177.74" width="27.0868" height="27.0868" rx="3" fill="black"/>
<path d="M104.524 231.551C101.423 235.171 98.9349 239.331 97.2209 243.871H174.764C173.049 239.331 170.56 235.171 167.457 231.551C164.524 228.13 162.313 224.193 160.954 219.977H111.027C109.668 224.193 107.457 228.13 104.524 231.551Z" fill="black"/>
<path d="M174.764 243.874H150.056L112.624 206.446L112.592 206.451V177.277H159.388V210.105C159.388 217.993 162.32 225.561 167.456 231.552C170.563 235.169 173.048 239.333 174.764 243.874Z" fill="black"/>
<rect x="0.558105" y="26.959" width="270.868" height="179.501" rx="71.8004" fill="black"/>
<rect x="8.3703" y="36.6816" width="255.243" height="160.055" rx="64.0222" fill="black"/>
<rect x="194.415" y="26.959" width="77.0115" height="179.501" rx="30.8046" fill="black"/>
<rect x="0.558105" y="139.84" width="270.868" height="66.6203" rx="26.6481" fill="black"/>
<rect x="17.5534" y="46.041" width="236.876" height="141.336" rx="56.5343" fill="black"/>
<path d="M247.238 46.041H194.415V187.377H247.238C251.211 187.377 254.431 184.157 254.431 180.185V53.2334C254.431 49.2612 251.211 46.041 247.238 46.041ZM200.341 271.215H71.6442C70.0716 271.215 68.6992 270.148 68.312 268.623L64.3866 253.162C63.5076 249.7 64.2612 246.098 66.4542 243.28C68.6466 240.461 71.9528 238.844 75.5235 238.844H196.461C200.032 238.844 203.338 240.461 205.531 243.28C207.723 246.098 208.477 249.7 207.598 253.162L203.672 268.623C203.286 270.148 201.913 271.215 200.341 271.215Z" fill="black"/>
<path d="M64.3865 253.162L68.312 268.624C68.6992 270.148 70.0711 271.216 71.6442 271.216H200.341C201.913 271.216 203.285 270.148 203.672 268.624L207.598 253.162C207.928 251.86 208.027 250.539 207.907 249.246H64.0774C63.9563 250.538 64.0557 251.86 64.3865 253.162ZM206.467 178.662V35.4261C206.467 16.0543 190.761 0.347656 171.388 0.347656H74.2074C69.4088 0.347656 65.5157 4.24072 65.5157 9.03934V178.662C65.5157 183.465 69.4088 187.354 74.2074 187.354H197.776C202.578 187.353 206.467 183.465 206.467 178.662Z" fill="black"/>
<path d="M65.5162 127.202V178.662C65.5162 183.464 69.4092 187.353 74.2079 187.353H197.776C202.579 187.353 206.468 183.465 206.468 178.662V127.202H65.5162ZM206.467 65.4012V35.4256C206.467 34.6545 206.433 33.8912 206.385 33.1328H174.199L206.467 65.4012Z" fill="black"/>
<path d="M171.389 0.347656V26.735C171.389 31.5357 175.28 35.4272 180.081 35.4272H206.468C206.468 16.0532 190.763 0.347656 171.389 0.347656Z" fill="black"/>
<path d="M116.195 69.6729H136.386C138.203 69.6729 139.676 68.1996 139.676 66.3827C139.676 64.5652 138.203 63.0924 136.386 63.0924H116.195C114.378 63.0924 112.905 64.5657 112.905 66.3827C112.905 68.1996 114.378 69.6729 116.195 69.6729ZM76.4123 69.6729H91.3287C93.1461 69.6729 94.6189 68.1996 94.6189 66.3827C94.6189 64.5652 93.1456 63.0924 91.3287 63.0924H76.4123C74.5948 63.0924 73.1221 64.5657 73.1221 66.3827C73.1221 68.1996 74.5954 69.6729 76.4123 69.6729ZM102.736 69.6729H106.465C108.282 69.6729 109.755 68.1996 109.755 66.3827C109.755 64.5652 108.282 63.0924 106.465 63.0924H102.736C100.918 63.0924 99.4457 64.5657 99.4457 66.3827C99.4457 68.1996 100.918 69.6729 102.736 69.6729ZM128.659 83.1765C128.659 81.3595 127.186 79.8862 125.369 79.8862H91.5485C89.7311 79.8862 88.2583 81.3595 88.2583 83.1765C88.2583 84.9939 89.7316 86.4667 91.5485 86.4667H125.369C127.186 86.4673 128.659 84.9939 128.659 83.1765ZM186.924 66.3821C186.924 64.5652 185.451 63.0919 183.634 63.0919H149.814C147.996 63.0919 146.524 64.5652 146.524 66.3821C146.524 68.1996 147.997 69.6724 149.814 69.6724H183.634C185.451 69.6729 186.924 68.1996 186.924 66.3821ZM76.4123 86.4673H80.1413C81.9587 86.4673 83.4315 84.9939 83.4315 83.177C83.4315 81.3601 81.9582 79.8868 80.1413 79.8868H76.4123C74.5948 79.8868 73.1221 81.3601 73.1221 83.177C73.1221 84.9939 74.5954 86.4673 76.4123 86.4673ZM136.385 98.8151H116.195C114.377 98.8151 112.905 100.288 112.905 102.105C112.905 103.922 114.378 105.396 116.195 105.396H136.385C138.203 105.396 139.675 103.922 139.675 102.105C139.675 100.288 138.203 98.8151 136.385 98.8151ZM76.4123 105.396H91.3287C93.1461 105.396 94.6189 103.923 94.6189 102.106C94.6189 100.289 93.1456 98.8157 91.3287 98.8157H76.4123C74.5948 98.8157 73.1221 100.289 73.1221 102.106C73.1221 103.923 74.5954 105.396 76.4123 105.396ZM102.736 98.8151C100.918 98.8151 99.4457 100.288 99.4457 102.105C99.4457 103.922 100.919 105.396 102.736 105.396H106.465C108.282 105.396 109.755 103.922 109.755 102.105C109.755 100.288 108.282 98.8151 106.465 98.8151H102.736ZM189.61 79.8862H155.789C153.972 79.8862 152.499 81.3595 152.499 83.1765C152.499 84.9939 153.972 86.4667 155.789 86.4667H189.61C191.427 86.4667 192.9 84.9934 192.9 83.1765C192.9 81.3595 191.427 79.8862 189.61 79.8862ZM144.383 79.8862H140.654C138.836 79.8862 137.363 81.3595 137.363 83.1765C137.363 84.9939 138.837 86.4667 140.654 86.4667H144.383C146.2 86.4667 147.673 84.9934 147.673 83.1765C147.673 81.3595 146.2 79.8862 144.383 79.8862ZM101.956 134.518H116.4C118.16 134.518 119.587 133.092 119.587 131.332C119.587 129.572 118.16 128.146 116.4 128.146H101.956C100.197 128.146 98.7701 129.572 98.7701 131.332C98.7696 133.092 100.196 134.518 101.956 134.518ZM127.447 134.518H131.058C132.817 134.518 134.244 133.092 134.244 131.332C134.244 129.572 132.817 128.146 131.058 128.146H127.447C125.687 128.146 124.26 129.572 124.26 131.332C124.26 133.092 125.686 134.518 127.447 134.518ZM84.4544 141.057H81.2396C76.7634 141.057 73.1221 137.416 73.1221 132.94V129.725C73.1221 125.249 76.7634 121.607 81.2396 121.607H84.4544C88.9307 121.607 92.572 125.249 92.572 129.725V132.94C92.572 137.415 88.9307 141.057 84.4544 141.057ZM81.2396 128.841C80.7521 128.841 80.3558 129.237 80.3558 129.724V132.939C80.3558 133.427 80.7526 133.823 81.2396 133.823H84.4544C84.942 133.823 85.3382 133.426 85.3382 132.939V129.724C85.3382 129.237 84.9415 128.841 84.4544 128.841H81.2396ZM131.058 162.005H116.613C114.854 162.005 113.427 160.579 113.427 158.819C113.427 157.06 114.854 155.633 116.613 155.633H131.058C132.817 155.633 134.244 157.06 134.244 158.819C134.244 160.579 132.817 162.005 131.058 162.005ZM105.567 162.005H101.956C100.197 162.005 98.7701 160.579 98.7701 158.819C98.7701 157.06 100.197 155.633 101.956 155.633H105.567C107.327 155.633 108.753 157.06 108.753 158.819C108.753 160.579 107.327 162.005 105.567 162.005ZM84.4544 168.544H81.2396C76.7634 168.544 73.1221 164.903 73.1221 160.426V157.212C73.1221 152.736 76.7634 149.094 81.2396 149.094H84.4544C88.9307 149.094 92.572 152.735 92.572 157.212V160.426C92.572 164.903 88.9307 168.544 84.4544 168.544ZM81.2396 156.328C80.7521 156.328 80.3558 156.725 80.3558 157.212V160.426C80.3558 160.914 80.7526 161.31 81.2396 161.31H84.4544C84.942 161.31 85.3382 160.913 85.3382 160.426V157.212C85.3382 156.724 84.9415 156.328 84.4544 156.328H81.2396ZM166.575 134.518H181.019C182.778 134.518 184.205 133.092 184.205 131.332C184.205 129.572 182.778 128.146 181.019 128.146H166.575C164.815 128.146 163.389 129.572 163.389 131.332C163.389 133.092 164.815 134.518 166.575 134.518ZM192.065 134.518H195.676C197.436 134.518 198.862 133.092 198.862 131.332C198.862 129.572 197.436 128.146 195.676 128.146H192.065C190.305 128.146 188.879 129.572 188.879 131.332C188.879 133.092 190.305 134.518 192.065 134.518ZM149.073 141.057H145.858C141.382 141.057 137.741 137.416 137.741 132.94V129.725C137.741 125.249 141.382 121.607 145.858 121.607H149.073C153.549 121.607 157.19 125.249 157.19 129.725V132.94C157.19 137.415 153.549 141.057 149.073 141.057ZM145.858 128.841C145.371 128.841 144.974 129.237 144.974 129.724V132.939C144.974 133.427 145.371 133.823 145.858 133.823H149.073C149.561 133.823 149.957 133.426 149.957 132.939V129.724C149.957 129.237 149.56 128.841 149.073 128.841H145.858ZM195.676 162.005H181.232C179.472 162.005 178.046 160.579 178.046 158.819C178.046 157.06 179.472 155.633 181.232 155.633H195.676C197.436 155.633 198.862 157.06 198.862 158.819C198.862 160.579 197.436 162.005 195.676 162.005ZM170.186 162.005H166.575C164.815 162.005 163.389 160.579 163.389 158.819C163.389 157.06 164.815 155.633 166.575 155.633H170.186C171.945 155.633 173.372 157.06 173.372 158.819C173.372 160.579 171.945 162.005 170.186 162.005ZM149.073 168.544H145.858C141.382 168.544 137.741 164.903 137.741 160.426V157.212C137.741 152.736 141.382 149.094 145.858 149.094H149.073C153.549 149.094 157.19 152.735 157.19 157.212V160.426C157.19 164.903 153.549 168.544 149.073 168.544ZM145.858 156.328C145.371 156.328 144.974 156.725 144.974 157.212V160.426C144.974 160.914 145.371 161.31 145.858 161.31H149.073C149.561 161.31 149.957 160.913 149.957 160.426V157.212C149.957 156.724 149.56 156.328 149.073 156.328H145.858ZM94.1999 16.5525C95.6519 16.5525 96.268 18.1368 96.268 19.5889C96.268 21.2614 95.5197 22.7129 94.1999 22.7129H88.1271V46.6072C88.1271 48.0146 86.4111 48.7189 84.695 48.7189C82.979 48.7189 81.263 48.0146 81.263 46.6072V22.7134H75.1902C73.8704 22.7134 73.1221 21.2613 73.1221 19.5894C73.1221 18.1373 73.7382 16.553 75.1902 16.553H94.1999V16.5525ZM105.86 29.9737H112.461C113.781 29.9737 114.529 31.25 114.529 32.658C114.529 33.8461 113.913 35.2546 112.461 35.2546H105.86V42.7353H117.653C118.973 42.7353 119.721 44.1433 119.721 45.7712C119.721 47.1792 119.105 48.7194 117.653 48.7194H101.988C100.492 48.7194 98.9953 48.0151 98.9953 46.6077V18.6647C98.9953 17.2568 100.491 16.5525 101.988 16.5525H117.653C119.105 16.5525 119.721 18.0927 119.721 19.5007C119.721 21.1291 118.973 22.5371 117.653 22.5371H105.86V29.9737ZM135.914 40.0946C135.914 34.7702 121.964 35.6944 121.964 25.3977C121.964 18.797 127.729 16.2891 133.229 16.2891C135.561 16.2891 141.986 16.7294 141.986 20.1609C141.986 21.349 141.194 23.7698 139.258 23.7698C137.674 23.7698 136.838 22.0973 133.229 22.0973C130.105 22.0973 128.829 23.3736 128.829 24.7375C128.829 29.1378 142.778 28.3013 142.778 39.3904C142.778 45.7271 138.158 49.1592 131.777 49.1592C126.013 49.1592 121.172 46.3432 121.172 43.4385C121.172 41.9429 122.493 39.7425 124.165 39.7425C126.233 39.7425 127.553 42.9982 131.646 42.9982C133.67 42.9988 135.914 42.2069 135.914 40.0946ZM165.219 16.5525C166.671 16.5525 167.287 18.1368 167.287 19.5889C167.287 21.2614 166.539 22.7129 165.219 22.7129H159.147V46.6072C159.147 48.0146 157.431 48.7189 155.715 48.7189C153.998 48.7189 152.282 48.0146 152.282 46.6072V22.7134H146.21C144.89 22.7134 144.142 21.2613 144.142 19.5894C144.142 18.1373 144.758 16.553 146.21 16.553H165.219V16.5525Z" fill="#7BACDF"/>
</svg>
