<svg width="391" height="268" viewBox="0 0 391 268" fill="none" xmlns="http://www.w3.org/2000/svg">
<path d="M138.548 267.367C62.0572 267.367 0.0522461 257.459 0.0522461 245.234C0.0522461 237.08 27.6786 229.953 68.7971 226.115C77.0406 233.08 87.9735 237.719 100.187 238.525C116.926 239.489 133.664 239.971 150.4 239.971C167.137 239.971 183.875 239.489 200.613 238.525C204.608 238.262 208.469 237.586 212.142 236.557V238.084C212.142 240.222 213.868 241.951 215.992 241.951H277.145C279.278 241.951 281 240.222 281 238.084V230.52L297.22 236.092L375.091 206.391C367.255 221.272 347.905 235.922 323.024 244.02C319.541 245.154 316.079 246.113 312.653 246.912C304.118 257.827 251.241 267.367 138.548 267.367ZM378.824 194.164L357.64 186.887L373.399 177.999C375.486 180.383 377.034 183.081 377.95 186.077C378.744 188.689 379.022 191.401 378.824 194.163M363.32 170.639L362.918 170.562C362.922 170.525 362.924 170.489 362.925 170.453C363.059 170.513 363.191 170.575 363.32 170.64" fill="#958EA3"/>
<rect x="246.831" y="86.2598" width="16" height="84.4483" rx="4.09039" fill="#6060B6"/>
<rect x="260.013" y="96.0449" width="16" height="74.662" rx="4.0908" fill="#756DBD"/>
<rect x="273.191" y="105.736" width="16" height="64.9722" rx="4.0908" fill="#8983C9"/>
<rect x="286.373" y="97.0996" width="16" height="73.6089" rx="4.09245" fill="#6194D5"/>
<rect x="299.558" y="86.2598" width="16" height="84.4483" rx="4.08915" fill="#88B3E3"/>
<rect x="312.732" y="98.1523" width="16" height="72.5557" rx="4.09285" fill="#98C1EA"/>
<rect x="325.919" y="108.891" width="16" height="61.8179" rx="4.08915" fill="#F8B02F"/>
<rect x="339.096" y="117.924" width="16" height="52.7842" rx="4.0912" fill="#FBD13B"/>
<rect x="352.279" y="126.346" width="16" height="44.3621" rx="4.0908" fill="#FDE760"/>
<path d="M366.252 119.649L363.099 109.148C362.991 108.78 362.688 108.506 362.313 108.436C361.938 108.368 361.555 108.514 361.322 108.813L358.757 112.113L358.737 112.092L306.012 70.8408C305.28 70.2613 304.263 70.2167 303.486 70.7267L278.307 87.0455L253.132 70.7267C252.116 70.0675 250.766 70.3629 250.109 71.3798C249.451 72.3998 249.745 73.7597 250.762 74.4169L277.122 91.5027C277.843 91.9733 278.77 91.9733 279.492 91.5027L304.549 75.2617L356.048 115.555L356.073 115.567L353.57 118.795L353.541 118.831C353.195 119.272 353.271 119.916 353.714 120.264C353.969 120.458 354.271 120.515 354.557 120.458L365.228 120.964C365.884 121.001 366.44 120.285 366.252 119.649Z" fill="white"/>
<rect x="246.831" y="144.471" width="16" height="26.2377" rx="4.0908" fill="#525198"/>
<path d="M267.349 170.708H262.109C260.952 170.708 260.013 169.765 260.013 168.602V144.471H270.24V168.602C270.24 168.776 270.219 168.95 270.179 169.113L267.349 170.708Z" fill="#625B9E"/>
<path d="M273.191 167.411V144.469H283.418V161.645L273.191 167.411Z" fill="#726BA6"/>
<path d="M286.373 159.978V144.471H296.604V158.383L291.021 157.358L286.373 159.978Z" fill="#5179AF"/>
<path d="M309.781 160.802L299.558 158.924V144.469H309.781V160.802Z" fill="#708FB9"/>
<path d="M322.964 163.225L312.733 161.346V144.471H322.964V163.225Z" fill="#7C99BD"/>
<path d="M336.141 165.646L325.919 163.767V144.469H336.141V165.646Z" fill="#C98C2E"/>
<path d="M349.324 168.067L339.097 166.188V144.469H349.324V168.067Z" fill="#CAA438"/>
<path d="M361.615 170.324L352.279 168.61V144.471H362.506V168.602C362.506 169.315 362.155 169.942 361.615 170.323" fill="#CAB453"/>
<path d="M293.593 223.01L203.841 206.518L291.02 157.357L380.772 173.841L293.593 223.01Z" fill="#E5E4E4"/>
<path d="M274.259 172.978C283.284 169.97 291.883 167.778 303.268 167.204C314.8 166.621 326.415 166.956 337.154 168.014L293.166 159.932L264.427 176.14C267.667 175.072 271.034 174.051 274.259 172.978Z" fill="#FBFBFB"/>
<path d="M374.128 172.623C373.584 172.935 373.04 173.239 372.496 173.546C357.805 181.871 343.136 190.196 328.197 198.477C316.929 204.717 303.243 211.823 283.664 214.689C264.899 217.443 250.311 213.483 237.865 210.207C229.198 207.936 219.33 206.089 209.289 204.547C208.825 204.478 208.3 204.401 207.756 204.315L203.842 206.518L293.593 223.01L380.771 173.842L374.128 172.623Z" fill="#CCC8D2"/>
<path d="M280.197 176.485L273.336 175.226C272.699 175.109 272.558 174.797 273.025 174.534C273.372 174.336 273.952 174.223 274.489 174.223C274.682 174.223 274.867 174.238 275.032 174.266L282.256 175.594L277.612 174.74C277.443 174.708 277.257 174.695 277.069 174.695C276.528 174.695 275.952 174.809 275.605 175.007C275.138 175.271 275.279 175.577 275.915 175.7L280.197 176.485Z" fill="#C0BFBF"/>
<path d="M280.197 176.484L275.916 175.699C275.279 175.577 275.138 175.27 275.605 175.006C275.952 174.808 276.528 174.695 277.069 174.695C277.258 174.695 277.443 174.707 277.613 174.739L282.257 175.593L280.197 176.484Z" fill="#A3A1A1"/>
<path d="M272.924 177.367L270.369 176.898C269.728 176.781 269.587 176.473 270.054 176.206C270.401 176.012 270.981 175.895 271.522 175.895C271.711 175.895 271.896 175.91 272.066 175.942L278.653 177.149V177.153L274.641 176.417C274.476 176.384 274.29 176.368 274.098 176.368C273.561 176.368 272.977 176.485 272.634 176.683C272.17 176.943 272.304 177.25 272.924 177.367ZM276.593 178.044L272.945 177.372C272.94 177.372 272.933 177.371 272.924 177.367L276.593 178.044Z" fill="#C0BFBF"/>
<path d="M276.593 178.045L272.924 177.368C272.304 177.251 272.171 176.943 272.634 176.684C272.977 176.486 273.561 176.369 274.098 176.369C274.292 176.369 274.476 176.385 274.641 176.417L278.653 177.154L276.593 178.045Z" fill="#A3A1A1"/>
<path d="M316.869 170.375L314.516 169.942C314.406 169.921 314.281 169.918 314.148 169.938C314.011 169.955 313.898 169.987 313.818 170.035L307.666 173.502C307.584 173.55 307.48 173.584 307.352 173.603C307.218 173.619 307.098 173.619 306.969 173.595L304.449 173.133C304.34 173.109 304.271 173.077 304.252 173.028L304.34 172.89L310.496 169.42L310.592 169.287C310.577 169.242 310.504 169.205 310.383 169.185L307.997 168.744C307.888 168.724 307.822 168.691 307.799 168.642L307.887 168.505L309.56 167.562C309.645 167.518 309.758 167.484 309.887 167.465C310.024 167.448 310.153 167.448 310.259 167.473L319.134 169.1C319.256 169.121 319.32 169.157 319.34 169.201L319.239 169.339L317.567 170.282C317.482 170.327 317.376 170.359 317.248 170.38C317.115 170.397 316.989 170.395 316.869 170.375ZM318.506 173.194L320.002 173.47C320.114 173.49 320.219 173.49 320.328 173.465C320.429 173.449 320.485 173.413 320.506 173.36C320.598 173.222 320.703 173.064 320.823 172.878C320.945 172.696 321.053 172.525 321.159 172.364L321.114 172.274C321.058 172.267 320.973 172.279 320.852 172.312L318.526 172.996C318.406 173.028 318.34 173.063 318.328 173.101C318.324 173.142 318.381 173.17 318.506 173.194ZM322.864 169.995C322.98 169.963 323.122 169.938 323.278 169.931C323.439 169.918 323.581 169.923 323.706 169.946L326.061 170.38C326.172 170.4 326.254 170.435 326.306 170.485L326.338 170.635L322.883 176.251C322.852 176.299 322.771 176.344 322.625 176.376C322.485 176.413 322.32 176.418 322.142 176.38L319.268 175.854C319.142 175.833 319.055 175.794 319.006 175.745L318.949 175.591L319.235 175.094L319.184 174.944C319.131 174.891 319.046 174.859 318.933 174.838L315.393 174.186C315.271 174.163 315.127 174.157 314.963 174.169C314.805 174.178 314.668 174.202 314.547 174.235L313.337 174.562C313.22 174.597 313.081 174.618 312.918 174.627C312.761 174.64 312.628 174.632 312.516 174.611L309.625 174.081L309.472 174.037L309.395 173.967L309.444 173.882C309.479 173.854 309.553 173.825 309.666 173.797L322.864 169.995ZM331.446 174.587L331.188 171.578C331.188 171.529 331.245 171.486 331.361 171.448C331.478 171.405 331.592 171.396 331.704 171.42L334.929 172.008C335.041 172.032 335.136 172.068 335.211 172.117L335.32 172.267L335.171 173.918L335.307 174.02C335.396 174.037 335.514 174.032 335.643 174.008C336.368 173.862 337.106 173.716 337.847 173.562C338.59 173.404 339.306 173.259 340.004 173.116C340.139 173.091 340.29 173.078 340.456 173.077C340.629 173.068 340.762 173.081 340.875 173.101L344.084 173.688C344.218 173.715 344.255 173.754 344.197 173.805C344.136 173.854 344.039 173.895 343.907 173.914L335.763 175.38C335.634 175.405 335.522 175.445 335.436 175.494L335.3 175.643L335.537 178.575C335.537 178.623 335.478 178.668 335.349 178.713C335.223 178.753 335.106 178.762 334.998 178.742L331.801 178.154C331.687 178.133 331.599 178.102 331.522 178.049L331.41 177.899L331.544 176.316L331.41 176.219C331.317 176.198 331.208 176.206 331.075 176.231L326.906 177.073C326.774 177.098 326.621 177.113 326.448 177.117C326.278 177.126 326.137 177.113 326.025 177.093L322.832 176.51C322.718 176.486 322.69 176.45 322.739 176.396C322.796 176.34 322.883 176.299 323.017 176.276L330.982 174.85C331.113 174.825 331.223 174.789 331.313 174.74L331.446 174.587Z" fill="#D5D4D5"/>
<path d="M311.833 171.152L309.092 170.208L310.496 169.419L310.592 169.286C310.576 169.241 310.503 169.204 310.382 169.184L307.996 168.743C307.888 168.723 307.821 168.69 307.798 168.641L307.887 168.504L309.56 167.561C309.644 167.516 309.758 167.483 309.887 167.464C309.949 167.455 310.011 167.451 310.073 167.451C310.138 167.452 310.2 167.459 310.258 167.472L319.133 169.099C319.255 169.12 319.319 169.156 319.34 169.2L319.239 169.338L317.567 170.281C317.482 170.326 317.375 170.358 317.247 170.378C317.186 170.387 317.127 170.391 317.07 170.391C317.001 170.391 316.936 170.383 316.868 170.374L314.515 169.941C314.453 169.93 314.386 169.925 314.313 169.925C314.259 169.925 314.204 169.929 314.148 169.937C314.011 169.953 313.897 169.986 313.818 170.034L311.833 171.152ZM323.548 175.173L315.03 172.249L322.863 169.994C322.98 169.962 323.121 169.937 323.278 169.93C323.334 169.925 323.387 169.922 323.436 169.921C323.532 169.921 323.625 169.93 323.705 169.945L326.06 170.378C326.172 170.399 326.253 170.434 326.306 170.484L326.338 170.633L323.548 175.173ZM318.327 173.103C318.327 173.144 318.388 173.168 318.505 173.192L320.001 173.467C320.053 173.478 320.105 173.484 320.158 173.483C320.215 173.483 320.272 173.476 320.327 173.462C320.429 173.447 320.484 173.41 320.505 173.359C320.598 173.22 320.702 173.062 320.823 172.876C320.945 172.694 321.053 172.523 321.158 172.361L321.114 172.272C321.1 172.271 321.085 172.269 321.069 172.268C321.017 172.267 320.945 172.281 320.852 172.31L318.526 172.994C318.405 173.026 318.339 173.061 318.327 173.098V173.103ZM335.114 178.752C335.072 178.752 335.034 178.748 334.997 178.74L332.699 178.319L331.409 177.878L331.543 176.315L331.409 176.217C331.373 176.209 331.337 176.205 331.292 176.205C331.228 176.205 331.155 176.213 331.075 176.23L328.264 176.797L325.471 175.837L330.982 174.849C331.112 174.824 331.223 174.788 331.312 174.739L331.446 174.586L331.188 171.577C331.187 171.528 331.245 171.485 331.36 171.447C331.437 171.419 331.511 171.404 331.582 171.404C331.624 171.403 331.664 171.408 331.703 171.419L334.928 172.007C335.041 172.031 335.135 172.067 335.211 172.116L335.319 172.266L335.171 173.917L335.307 174.019C335.345 174.024 335.384 174.026 335.424 174.027C335.489 174.026 335.561 174.02 335.641 174.006C336.369 173.863 337.104 173.714 337.846 173.561C338.59 173.403 339.306 173.258 340.003 173.115C340.139 173.09 340.29 173.077 340.455 173.076H340.56C340.683 173.076 340.788 173.084 340.874 173.099L344.084 173.687C344.177 173.708 344.223 173.732 344.224 173.76C344.224 173.772 344.215 173.787 344.196 173.804C344.135 173.853 344.038 173.893 343.906 173.913L335.763 175.379C335.634 175.404 335.521 175.444 335.436 175.493L335.3 175.642L335.537 178.574C335.537 178.622 335.477 178.667 335.348 178.711C335.268 178.74 335.189 178.754 335.114 178.753" fill="#B4B3B3"/>
<path d="M363.695 175.931C363.506 175.931 363.32 175.914 363.155 175.886L360.591 175.413C360.753 175.441 360.934 175.457 361.119 175.457C361.656 175.457 362.236 175.339 362.582 175.145C363.05 174.882 362.913 174.57 362.273 174.453L321.876 167.035H321.88L364.852 174.927C365.494 175.044 365.63 175.356 365.162 175.619C364.816 175.813 364.232 175.931 363.695 175.931Z" fill="#C0BFBF"/>
<path d="M321.88 167.035H321.876L300.204 163.051L321.88 167.035ZM297.056 163.743L294.524 163.277C293.883 163.16 293.742 162.852 294.209 162.585C294.556 162.391 295.137 162.273 295.673 162.273C295.868 162.273 296.051 162.29 296.221 162.322L298.789 162.792C298.624 162.764 298.438 162.75 298.253 162.75C297.716 162.75 297.136 162.864 296.789 163.059C296.334 163.318 296.455 163.618 297.056 163.743Z" fill="#D2D1D2"/>
<path d="M360.592 175.413H360.576L314.353 166.922H314.358L360.592 175.413Z" fill="#C0BFBF"/>
<path d="M314.354 166.921L297.1 163.751C297.083 163.751 297.072 163.747 297.055 163.743L314.358 166.921H314.354ZM300.204 163.05L298.789 162.791C298.793 162.792 298.797 162.794 298.802 162.795L300.204 163.05Z" fill="#D2D1D2"/>
<path d="M361.12 175.458C360.934 175.458 360.753 175.441 360.592 175.413L314.358 166.922H314.652C317.076 166.921 319.484 166.959 321.876 167.036L362.272 174.454C362.914 174.571 363.05 174.883 362.582 175.146C362.236 175.34 361.656 175.457 361.119 175.457" fill="#A3A1A1"/>
<path d="M321.876 167.034C319.483 166.957 317.075 166.919 314.652 166.92H314.358L297.055 163.742C296.455 163.617 296.333 163.317 296.789 163.058C297.136 162.863 297.717 162.75 298.252 162.75C298.438 162.75 298.624 162.762 298.789 162.79L300.203 163.05L321.876 167.034Z" fill="#B1B0B0"/>
<path d="M349.518 183.924C349.328 183.924 349.143 183.911 348.974 183.879L348.784 183.846L347.519 183.41C347.861 183.361 348.179 183.268 348.405 183.142C348.852 182.887 348.748 182.591 348.175 182.461L350.674 182.924C351.315 183.041 351.453 183.353 350.989 183.616C350.638 183.81 350.057 183.924 349.518 183.924ZM288.703 172.809L280.347 171.275C280.21 171.246 280.095 171.212 280.004 171.173C280.889 170.915 281.778 170.666 282.668 170.428L284.583 170.78C284.43 170.755 284.257 170.744 284.083 170.744C283.543 170.744 282.963 170.858 282.616 171.055C282.144 171.318 282.286 171.63 282.922 171.744L288.707 172.805L288.703 172.809Z" fill="#C0BFBF"/>
<path d="M280.004 171.172C279.673 171.022 279.661 170.788 280.035 170.577C280.382 170.383 280.958 170.27 281.499 170.27C281.688 170.27 281.874 170.281 282.039 170.314L282.668 170.428C281.777 170.666 280.889 170.914 280.004 171.172Z" fill="#D2D1D2"/>
<path d="M348.175 182.46L340.834 181.113L340.826 181.109L348.094 182.445C348.123 182.452 348.15 182.458 348.175 182.46ZM290.766 171.917L284.583 170.779C284.599 170.782 284.611 170.785 284.619 170.788L290.766 171.917Z" fill="#C0BFBF"/>
<path d="M347.518 183.41L340.834 181.114L348.175 182.462C348.747 182.591 348.851 182.887 348.405 183.143C348.179 183.267 347.862 183.36 347.518 183.41ZM288.706 172.806L282.922 171.744C282.285 171.63 282.144 171.319 282.615 171.056C282.962 170.857 283.542 170.744 284.083 170.744C284.256 170.744 284.43 170.757 284.582 170.78L290.766 171.919L288.706 172.806Z" fill="#A3A1A1"/>
<path d="M263.355 183.763L262.597 183.625L265.342 182.077C266.116 181.64 265.887 181.13 264.831 180.936C264.552 180.883 264.246 180.859 263.928 180.859C263.161 180.859 262.343 181 261.767 181.248C262.867 180.737 264.508 180.441 266.04 180.441C266.637 180.441 267.217 180.486 267.741 180.583L269.829 180.964L263.355 183.763ZM262.277 183.806C262.379 183.742 262.463 183.677 262.528 183.612L262.596 183.625L262.277 183.806ZM258.483 183.082L261.515 181.373C261.592 181.329 261.676 181.287 261.765 181.248C261.649 181.304 261.539 181.36 261.435 181.418C260.733 181.814 260.463 182.24 260.592 182.62C259.814 182.644 259.016 182.814 258.483 183.082Z" fill="#C0BFBF"/>
<path d="M262.596 183.625L262.528 183.612C262.902 183.236 262.6 182.851 261.718 182.69C261.439 182.64 261.133 182.616 260.819 182.616C260.743 182.616 260.668 182.617 260.593 182.62C260.464 182.24 260.734 181.814 261.435 181.418C261.54 181.361 261.65 181.304 261.765 181.248C262.343 181 263.16 180.859 263.927 180.859C264.245 180.859 264.552 180.883 264.83 180.936C265.886 181.13 266.116 181.641 265.342 182.077L262.596 183.625Z" fill="#A3A1A1"/>
<path d="M248.294 188.828L253.397 185.949C253.39 185.954 253.383 185.959 253.374 185.965L248.294 188.828ZM253.446 185.925L258.4 183.127C258.428 183.11 258.457 183.099 258.485 183.082L253.475 185.909C253.463 185.912 253.453 185.918 253.446 185.925ZM259.058 185.621L262.278 183.807L262.226 183.836L259.062 185.616L259.058 185.621Z" fill="#ADACAC"/>
<path d="M247.44 190.64C247.396 190.223 247.347 189.811 247.29 189.393L247.848 189.077C247.484 189.325 247.645 189.599 248.238 189.705L249.193 189.883L247.44 190.64ZM251.153 189.037L249.855 188.798C249.686 188.766 249.496 188.749 249.303 188.749C248.823 188.749 248.315 188.843 247.984 189L248.295 188.826L253.374 185.963C252.991 186.211 253.148 186.486 253.749 186.6L255.885 186.992L251.153 189.037ZM257.849 186.141L255.366 185.688C255.201 185.656 255.015 185.644 254.825 185.644C254.33 185.644 253.805 185.741 253.475 185.907L258.485 183.08C259.018 182.813 259.817 182.643 260.594 182.619C260.735 183.036 261.355 183.397 262.412 183.59L262.529 183.611C262.464 183.676 262.381 183.741 262.279 183.805L259.058 185.619L257.849 186.141Z" fill="#A3A1A1"/>
<path d="M262.528 183.612L262.412 183.591C261.355 183.397 260.735 183.036 260.593 182.62C260.669 182.616 260.744 182.615 260.819 182.615C261.134 182.615 261.439 182.639 261.717 182.688C262.6 182.85 262.904 183.236 262.528 183.612Z" fill="#8B8889"/>
<path d="M247.976 189.028L247.938 189.012C247.926 188.999 247.904 188.999 247.892 189.012L247.855 189.028C247.837 189.047 247.851 189.079 247.878 189.079H247.953C247.979 189.079 247.993 189.047 247.976 189.028Z" fill="#C0BFBF"/>
<path d="M249.193 189.884L248.237 189.706C247.645 189.6 247.484 189.325 247.847 189.078L247.984 189.001C248.314 188.843 248.823 188.75 249.302 188.75C249.495 188.75 249.684 188.767 249.855 188.799L251.153 189.037L249.193 189.884Z" fill="#8B8889"/>
<path d="M253.443 185.931L253.429 185.927C253.425 185.923 253.418 185.923 253.414 185.927L253.4 185.931C253.394 185.938 253.398 185.949 253.407 185.949H253.435C253.444 185.949 253.449 185.938 253.443 185.931Z" fill="#C0BFBF"/>
<path d="M253.373 185.964C253.382 185.959 253.389 185.954 253.397 185.949L253.446 185.924C253.453 185.917 253.463 185.912 253.474 185.908L253.373 185.964Z" fill="#939192"/>
<path d="M255.885 186.993L253.749 186.599C253.147 186.486 252.99 186.212 253.373 185.964L253.474 185.908C253.805 185.742 254.329 185.645 254.824 185.645C255.014 185.645 255.199 185.657 255.365 185.689L257.848 186.142H257.844C257.686 186.118 257.518 186.106 257.34 186.106C256.824 186.106 256.272 186.216 255.941 186.397C255.59 186.6 255.606 186.822 255.941 186.964L255.885 186.993Z" fill="#8B8889"/>
<path d="M255.941 186.966C255.606 186.824 255.59 186.601 255.941 186.398C256.271 186.216 256.824 186.107 257.34 186.107C257.518 186.107 257.686 186.119 257.844 186.143L255.941 186.966Z" fill="#787576"/>
<path d="M384.375 198.274L384.295 198.245L378.583 196.286C378.692 195.573 378.777 194.868 378.824 194.164L387.41 197.115L384.375 198.274Z" fill="#9C96A4"/>
<path d="M378.582 196.284L355.214 188.255L357.64 186.887L378.824 194.163C378.776 194.868 378.692 195.572 378.582 196.284Z" fill="#7F788A"/>
<path d="M262.06 186.915L258.062 186.182L259.062 185.615L263.355 183.761L268.063 184.628L262.06 186.915ZM349.791 186.393L335.014 181.316L348.784 183.846L352.218 185.025C351.408 185.483 350.602 185.936 349.792 186.393M275.117 181.936L269.828 180.963L276.593 178.044L276.843 178.089L282.487 179.125L275.117 181.936ZM340.825 181.11L327.058 178.583L314.465 174.259L314.545 174.235C314.667 174.203 314.803 174.178 314.961 174.17C315.016 174.165 315.07 174.163 315.122 174.162C315.219 174.162 315.309 174.17 315.393 174.186L318.932 174.838C319.045 174.859 319.128 174.89 319.181 174.944L319.234 175.093L318.948 175.591L319.005 175.745C319.052 175.794 319.141 175.834 319.267 175.854L322.141 176.381C322.225 176.397 322.306 176.405 322.382 176.405C322.467 176.406 322.547 176.397 322.624 176.376C322.769 176.345 322.851 176.3 322.882 176.252L323.547 175.174L325.47 175.837L323.015 176.276C322.882 176.3 322.794 176.34 322.736 176.397C322.721 176.414 322.713 176.429 322.713 176.442C322.714 176.47 322.753 176.493 322.83 176.51L326.022 177.094C326.112 177.11 326.221 177.118 326.349 177.118H326.446C326.62 177.113 326.773 177.098 326.906 177.073L328.264 176.798L331.408 177.879V177.9L331.522 178.049C331.598 178.101 331.687 178.134 331.8 178.154L332.698 178.32L340.825 181.11ZM284.731 178.268L278.653 177.15L280.196 176.486L286.412 177.628L284.731 178.268ZM288.663 176.769L282.257 175.595L288.702 172.81L295.685 174.093L288.663 176.769ZM311.549 173.255L309.412 172.518L311.834 171.153L315.032 172.251L311.549 173.255ZM297.936 173.235L290.767 171.918L301.083 167.461L309.093 170.21L306.67 171.578L304.357 170.785L297.936 173.235Z" fill="#C0BFBF"/>
<path d="M355.214 188.256L349.792 186.394C350.602 185.937 351.408 185.484 352.219 185.025L357.641 186.888L355.214 188.256Z" fill="#ACA8B1"/>
<path d="M286.413 177.626L280.196 176.485L282.256 175.594L288.662 176.768L286.413 177.626Z" fill="#8B8889"/>
<path d="M284.732 178.267L278.654 177.153V177.148L284.732 178.267Z" fill="#A3A1A1"/>
<path d="M282.486 179.125L276.843 178.088L276.593 178.044L278.653 177.152L284.731 178.267L282.486 179.125Z" fill="#8B8889"/>
<path d="M309.411 172.517L306.67 171.577L309.092 170.209L311.833 171.152L309.411 172.517ZM322.383 176.405C322.307 176.405 322.226 176.396 322.141 176.38L319.267 175.853C319.141 175.832 319.054 175.793 319.005 175.744L318.949 175.591L319.234 175.093L319.183 174.943C319.13 174.89 319.046 174.858 318.932 174.837L315.392 174.185C315.31 174.169 315.22 174.161 315.123 174.161C315.071 174.162 315.018 174.165 314.962 174.169C314.804 174.177 314.667 174.202 314.546 174.234L314.466 174.258L311.547 173.254L315.03 172.249L323.548 175.173L322.882 176.251C322.852 176.299 322.77 176.344 322.624 176.376C322.548 176.396 322.468 176.405 322.383 176.405ZM332.699 178.32L331.801 178.154C331.687 178.134 331.599 178.1 331.522 178.049L331.409 177.898V177.878L332.699 178.32ZM326.35 177.118C326.221 177.118 326.112 177.11 326.023 177.094L322.831 176.51C322.753 176.494 322.714 176.471 322.713 176.442C322.713 176.429 322.721 176.415 322.738 176.397C322.795 176.34 322.882 176.3 323.017 176.276L325.471 175.839L328.264 176.798L326.906 177.073C326.773 177.099 326.62 177.114 326.447 177.118H326.35Z" fill="#989697"/>
<path d="M348.784 183.847L335.013 181.317L335.009 181.312L346.398 183.406C346.568 183.437 346.751 183.452 346.945 183.451C347.135 183.451 347.329 183.438 347.518 183.409L348.784 183.847ZM295.685 174.093L288.702 172.809L288.707 172.805L295.689 174.089L295.685 174.093ZM340.834 181.114L327.068 178.583H327.059L340.826 181.11L340.834 181.114Z" fill="#A3A1A1"/>
<path d="M346.945 183.45C346.75 183.451 346.567 183.436 346.397 183.405L335.008 181.311L327.067 178.582L340.834 181.113L347.518 183.409C347.328 183.437 347.134 183.45 346.945 183.45ZM295.689 174.087L288.706 172.804L290.766 171.918L297.934 173.234L295.689 174.087Z" fill="#8B8889"/>
<path d="M268.063 184.627L263.355 183.761L269.829 180.963L275.118 181.935L275.041 181.963C274.743 181.939 274.436 181.927 274.123 181.927C272.433 181.927 270.611 182.291 269.522 182.902C268.676 183.38 268.462 183.907 268.82 184.34L268.063 184.627Z" fill="#A3A1A1"/>
<path d="M268.821 184.341C268.462 183.908 268.677 183.381 269.523 182.903C270.61 182.292 272.433 181.928 274.121 181.928C274.436 181.928 274.742 181.94 275.041 181.964L268.821 184.341Z" fill="#8B8889"/>
<path d="M259.005 185.807L258.731 185.692C258.641 185.59 258.482 185.59 258.392 185.692L258.118 185.807C257.99 185.953 258.093 186.182 258.288 186.182H258.836C259.03 186.182 259.133 185.953 259.005 185.807Z" fill="#939192"/>
<path d="M258.982 185.77L258.615 185.683C258.524 185.598 258.382 185.598 258.291 185.683L257.925 185.77C257.766 185.917 257.871 186.182 258.087 186.182H258.82C259.036 186.182 259.14 185.917 258.982 185.77Z" fill="#8B8889"/>
<path d="M247.58 192.439C247.572 192.33 247.568 192.218 247.56 192.103L249.926 190.772C249.927 190.768 249.93 190.767 249.934 190.767L250.934 190.2L252.631 190.512L247.58 192.439ZM254.771 189.698L252.551 189.288L256.445 187.094L259.923 187.733L254.771 189.698Z" fill="#C0BFBF"/>
<path d="M247.56 192.102C247.545 191.827 247.52 191.551 247.501 191.275H247.516C248.404 191.275 249.354 191.089 249.927 190.77L247.56 192.102Z" fill="#A3A1A1"/>
<path d="M249.927 190.77L250.935 190.2L249.934 190.766C249.93 190.766 249.927 190.767 249.927 190.77Z" fill="#939192"/>
<path d="M247.516 191.278H247.5L247.439 190.642L249.194 189.885L250.935 190.2L249.926 190.771C249.354 191.092 248.403 191.277 247.516 191.277M252.552 189.289L252.373 189.258C252.338 189.249 252.3 189.243 252.26 189.241L251.152 189.038L255.885 186.994L256.446 187.095L252.552 189.289Z" fill="#8B8889"/>
<path d="M252.536 190.22L251.837 190.21C251.803 190.198 251.766 190.198 251.733 190.21L251.033 190.22C250.875 190.278 250.917 190.512 251.085 190.512H252.484C252.653 190.512 252.694 190.278 252.536 190.22Z" fill="#A3A1A1"/>
<path d="M250.935 190.199L249.193 189.884L251.153 189.037L252.261 189.24C252.127 189.224 251.983 189.211 251.838 189.211C251.318 189.211 250.758 189.321 250.431 189.507C249.987 189.759 250.132 190.054 250.758 190.167L250.935 190.199Z" fill="#777475"/>
<path d="M254.642 189.315L253.729 189.302C253.684 189.285 253.635 189.285 253.59 189.302L252.678 189.315C252.469 189.393 252.524 189.703 252.747 189.703H254.572C254.795 189.703 254.851 189.393 254.642 189.315Z" fill="#939192"/>
<path d="M252.534 189.243L252.414 189.242C252.409 189.24 252.403 189.24 252.398 189.242L252.278 189.243C252.251 189.253 252.258 189.292 252.286 189.292H252.526C252.554 189.292 252.561 189.253 252.534 189.243Z" fill="#545152"/>
<path d="M256.813 190.172C257.985 189 259.884 189 261.056 190.172L266.056 195.172C267.227 196.343 267.227 198.243 266.056 199.414L261.056 204.414C259.884 205.586 257.985 205.586 256.813 204.414L251.813 199.414C250.642 198.243 250.642 196.343 251.813 195.172L256.813 190.172Z" fill="#8B8889"/>
<path d="M250.934 190.199L250.757 190.168C250.132 190.054 249.987 189.758 250.43 189.506C250.757 189.32 251.317 189.211 251.837 189.211C251.982 189.211 252.126 189.223 252.261 189.24L252.546 189.292L250.934 190.199Z" fill="#686566"/>
<path d="M259.721 187.133L258.292 187.113C258.223 187.087 258.147 187.087 258.078 187.113L256.649 187.133C256.324 187.252 256.41 187.733 256.756 187.733H259.614C259.96 187.733 260.045 187.252 259.721 187.133Z" fill="#A3A1A1"/>
<path d="M256.446 187.094L255.885 186.994L255.941 186.965C256.03 187.006 256.14 187.038 256.271 187.062L256.446 187.094Z" fill="#777475"/>
<path d="M258.058 186.183L257.885 186.152C257.872 186.147 257.861 186.147 257.844 186.143H257.849L258.062 186.184L258.058 186.183Z" fill="#777475"/>
<path d="M259.924 187.731L256.446 187.095L258.062 186.184L262.061 186.916L259.924 187.731Z" fill="#8B8889"/>
<path d="M257.97 186.49L257.526 186.306C257.381 186.143 257.127 186.143 256.982 186.306L256.538 186.49C256.33 186.725 256.497 187.095 256.81 187.095H257.698C258.011 187.095 258.178 186.725 257.97 186.49Z" fill="#6C6A6A"/>
<path d="M256.446 187.094L256.273 187.062C256.139 187.038 256.029 187.005 255.943 186.965L257.844 186.143C257.861 186.147 257.872 186.147 257.886 186.151L258.058 186.183L256.446 187.094Z" fill="#686566"/>
<path d="M297.22 236.093L210.892 206.437L304.355 170.785L390.688 200.445L297.22 236.093Z" fill="#E5E4E4"/>
<path d="M285.477 183.741C294.845 182.106 303.674 181.218 315.014 182.348C326.507 183.486 337.947 185.543 348.413 188.191L306.097 173.65L275.282 185.405C278.652 184.831 282.127 184.324 285.478 183.741" fill="#FBFBFB"/>
<path d="M384.294 198.246C383.714 198.473 383.125 198.696 382.545 198.918C366.791 204.964 351.053 211.017 335.057 216.977C322.996 221.476 308.415 226.465 288.626 226.387C269.663 226.323 255.82 220.233 243.988 215.143C235.761 211.609 226.271 208.312 216.572 205.296C216.12 205.154 215.613 205.005 215.084 204.838L210.892 206.437L297.22 236.093L390.687 200.446L384.294 198.246Z" fill="#CCC8D2"/>
<path d="M313.028 223.301C312.641 223.301 312.229 223.24 311.903 223.131L309.516 222.309C309.822 222.402 310.19 222.451 310.54 222.451C310.883 222.451 311.209 222.406 311.447 222.313C311.947 222.122 311.858 221.795 311.241 221.584L280.999 211.194V211.189L313.721 222.434C314.333 222.645 314.426 222.973 313.926 223.167C313.689 223.256 313.366 223.301 313.028 223.301ZM309.516 222.309C309.48 222.3 309.452 222.288 309.42 222.281L280.999 212.514L309.516 222.309Z" fill="#C0BFBF"/>
<path d="M310.54 222.451C310.19 222.451 309.822 222.402 309.516 222.308L281 212.513V211.193L311.241 221.584C311.858 221.794 311.947 222.123 311.448 222.313C311.209 222.406 310.884 222.451 310.54 222.451Z" fill="#A3A1A1"/>
<path d="M296.548 226.144L280.999 220.803V220.799L296.556 226.144H296.548ZM299.66 225.893L281 219.479L299.663 225.893H299.66Z" fill="#C0BFBF"/>
<path d="M302.276 227.594L302.428 227.531C302.949 227.334 302.88 227.006 302.272 226.787L302.287 226.795C302.904 227.006 303.001 227.334 302.498 227.528C302.429 227.552 302.355 227.574 302.276 227.594ZM299.3 227.087L296.547 226.143H296.555L297.99 226.638C298.317 226.751 298.728 226.808 299.115 226.808C299.457 226.808 299.78 226.763 300.014 226.673C300.521 226.479 300.425 226.155 299.808 225.945L299.66 225.893H299.663L302.222 226.772C301.9 226.666 301.506 226.613 301.126 226.613C300.764 226.613 300.417 226.662 300.166 226.758L299.3 227.087Z" fill="#ACA8B1"/>
<path d="M296.556 226.144L281 220.799V219.479L299.66 225.893C298.639 225.991 297.604 226.075 296.556 226.144Z" fill="#A3A1A1"/>
<path d="M299.115 226.808C298.728 226.808 298.318 226.751 297.991 226.638L296.556 226.143C297.605 226.074 298.639 225.991 299.66 225.893L299.809 225.944C300.426 226.156 300.522 226.479 300.015 226.674C299.781 226.763 299.458 226.808 299.115 226.808Z" fill="#928E96"/>
<path d="M293.936 230.581C293.549 230.581 293.137 230.525 292.815 230.411L292.794 230.407C293.117 230.512 293.524 230.565 293.907 230.565C294.266 230.565 294.609 230.521 294.854 230.423L295.008 230.362C294.963 230.395 294.907 230.423 294.839 230.447C294.601 230.536 294.278 230.582 293.936 230.582M292.735 230.383L290.348 229.564C290.675 229.674 291.077 229.727 291.46 229.727C291.799 229.727 292.121 229.682 292.355 229.593C292.826 229.415 292.775 229.119 292.27 228.905L293.46 229.314L292.589 229.646C292.077 229.841 292.145 230.172 292.734 230.382M290.348 229.565L290.331 229.561L280.999 226.354L290.348 229.565Z" fill="#ACA8B1"/>
<path d="M284.652 226.285C284.644 226.285 284.639 226.284 284.635 226.28L280.999 225.033V225.029L284.652 226.285Z" fill="#C0BFBF"/>
<path d="M292.27 228.905L284.635 226.281C284.638 226.285 284.644 226.286 284.651 226.285L292.154 228.86C292.194 228.875 292.232 228.89 292.27 228.905Z" fill="#ACA8B1"/>
<path d="M284.39 225.254L283.136 225.134C282.944 225.002 282.69 225.002 282.498 225.134L281.245 225.254C280.788 225.567 281.009 226.282 281.563 226.282H284.071C284.625 226.282 284.846 225.567 284.39 225.254Z" fill="#A3A1A1"/>
<path d="M291.461 229.728C291.077 229.728 290.675 229.676 290.348 229.566L281 226.355V226.031C282.19 226.137 283.402 226.221 284.635 226.282L292.27 228.906C292.775 229.12 292.827 229.416 292.355 229.594C292.122 229.683 291.798 229.729 291.46 229.729" fill="#928E96"/>
<path d="M281.806 214.883C281.535 214.883 281.258 214.854 281 214.802V213.502L282.499 214.02C283.115 214.231 283.208 214.554 282.709 214.749C282.471 214.838 282.148 214.883 281.806 214.883ZM317.864 197.159C317.477 197.159 317.067 197.102 316.735 196.989L314.341 196.163C314.66 196.261 315.035 196.308 315.39 196.308C315.728 196.308 316.05 196.265 316.284 196.176C316.788 195.981 316.695 195.653 316.078 195.443L294.846 188.145L318.558 196.293C319.175 196.507 319.268 196.836 318.764 197.026C318.53 197.115 318.203 197.159 317.864 197.159ZM286.643 186.649L284.236 185.822C283.62 185.612 283.527 185.288 284.027 185.094C284.264 185.005 284.587 184.959 284.93 184.959C285.317 184.959 285.728 185.016 286.059 185.13L288.485 185.963C288.167 185.863 287.78 185.81 287.413 185.81C287.07 185.81 286.748 185.855 286.51 185.944C286.027 186.13 286.091 186.437 286.644 186.649" fill="#C0BFBF"/>
<path d="M314.341 196.164L314.256 196.14L286.716 186.676C286.687 186.666 286.667 186.656 286.643 186.649L314.341 196.164ZM294.845 188.146L288.483 185.963C288.5 185.966 288.516 185.972 288.532 185.979L294.845 188.146Z" fill="#C0BFBF"/>
<path d="M315.39 196.309C315.035 196.309 314.66 196.26 314.341 196.164L286.643 186.648C286.091 186.437 286.027 186.13 286.51 185.943C286.747 185.854 287.07 185.809 287.413 185.809C287.78 185.809 288.166 185.862 288.486 185.964L294.846 188.146L316.079 195.442C316.695 195.653 316.788 195.981 316.285 196.175C316.05 196.264 315.727 196.309 315.39 196.309Z" fill="#A3A1A1"/>
<path d="M331.369 204.108C330.982 204.108 330.574 204.052 330.244 203.942L304.839 195.212L327.769 203.088C328.095 203.202 328.507 203.258 328.894 203.258C329.236 203.258 329.558 203.213 329.797 203.124C330.3 202.933 330.203 202.606 329.587 202.395L285.352 187.195C285.026 187.081 284.61 187.025 284.223 187.025C283.881 187.025 283.559 187.069 283.32 187.163C282.841 187.344 282.909 187.656 283.474 187.871L281.047 187.037C280.435 186.826 280.338 186.498 280.841 186.303C281.079 186.215 281.402 186.174 281.744 186.174C282.131 186.174 282.543 186.231 282.873 186.345L332.07 203.245C332.683 203.456 332.775 203.784 332.272 203.974C332.038 204.063 331.711 204.108 331.369 204.108Z" fill="#C0BFBF"/>
<path d="M303.534 189.74L295.856 188.399C294.832 187.695 293.481 187.695 292.458 188.399L284.78 189.74C282.351 191.408 283.532 195.212 286.479 195.212H301.835C304.781 195.212 305.962 191.408 303.534 189.74Z" fill="#C0BFBF"/>
<path d="M328.894 203.258C328.507 203.258 328.095 203.201 327.769 203.088L304.839 195.212L283.474 187.871C282.91 187.657 282.841 187.345 283.32 187.163C283.559 187.07 283.881 187.025 284.223 187.025C284.61 187.025 285.026 187.081 285.352 187.195L329.587 202.396C330.203 202.606 330.299 202.935 329.797 203.124C329.559 203.214 329.236 203.258 328.894 203.258Z" fill="#A3A1A1"/>
<path d="M327.998 187.502L325.738 186.725C325.629 186.688 325.507 186.668 325.371 186.664C325.234 186.664 325.12 186.676 325.031 186.712L318.441 189.227C318.352 189.26 318.242 189.277 318.111 189.279C317.977 189.276 317.856 189.255 317.735 189.215L315.312 188.38C315.204 188.343 315.143 188.3 315.132 188.251L315.24 188.129L321.834 185.615L321.952 185.49C321.94 185.445 321.88 185.4 321.763 185.36L319.469 184.571C319.36 184.533 319.304 184.49 319.283 184.445L319.397 184.316L321.19 183.632C321.279 183.6 321.392 183.585 321.529 183.586C321.662 183.59 321.787 183.607 321.891 183.647L330.43 186.574C330.543 186.619 330.611 186.664 330.62 186.709L330.494 186.829L328.704 187.518C328.616 187.547 328.507 187.562 328.378 187.562C328.244 187.562 328.12 187.547 327.998 187.502ZM329.204 190.535L330.639 191.029C330.753 191.065 330.857 191.08 330.962 191.077C331.067 191.069 331.132 191.045 331.155 190.996C331.268 190.876 331.397 190.732 331.542 190.567C331.687 190.401 331.825 190.251 331.945 190.109L331.917 190.016C331.867 189.997 331.779 189.995 331.655 190.009L329.248 190.34C329.127 190.357 329.062 190.382 329.043 190.417C329.03 190.458 329.084 190.494 329.204 190.535ZM333.982 188.02C334.106 188.005 334.248 188.003 334.408 188.016C334.568 188.031 334.708 188.058 334.828 188.097L337.089 188.875C337.199 188.911 337.275 188.959 337.319 189.017L337.331 189.17L333.082 194.208C333.046 194.251 332.958 194.284 332.809 194.296C332.663 194.308 332.502 194.289 332.333 194.223L329.563 193.276C329.449 193.24 329.366 193.191 329.321 193.131L329.288 192.972L329.643 192.522L329.616 192.361C329.572 192.307 329.495 192.261 329.385 192.223L325.976 191.053C325.854 191.012 325.721 190.981 325.556 190.972C325.399 190.956 325.257 190.96 325.137 190.976L323.895 191.118C323.77 191.134 323.625 191.134 323.472 191.122C323.311 191.109 323.182 191.08 323.07 191.045L320.292 190.094L320.147 190.021L320.082 189.943L320.138 189.867C320.182 189.843 320.259 189.822 320.372 189.815L333.982 188.02ZM341.798 193.835L341.987 190.826C341.991 190.778 342.056 190.741 342.173 190.717C342.297 190.693 342.41 190.705 342.52 190.741L345.624 191.806C345.725 191.843 345.811 191.891 345.882 191.951L345.97 192.117L345.578 193.734L345.696 193.851C345.785 193.879 345.897 193.891 346.03 193.887C346.772 193.855 347.518 193.815 348.276 193.778C349.029 193.733 349.763 193.692 350.477 193.656C350.614 193.652 350.763 193.656 350.928 193.685C351.097 193.701 351.231 193.733 351.34 193.77L354.432 194.831C354.555 194.876 354.586 194.92 354.525 194.96C354.456 195.002 354.355 195.024 354.222 195.026L345.946 195.264C345.817 195.268 345.7 195.292 345.603 195.325C345.502 195.366 345.454 195.406 345.45 195.455L345.252 198.39C345.243 198.439 345.176 198.475 345.051 198.499C344.918 198.52 344.801 198.512 344.692 198.475L341.621 197.422C341.511 197.381 341.427 197.333 341.367 197.277L341.274 197.111L341.636 195.559L341.515 195.442C341.431 195.414 341.321 195.402 341.185 195.406L336.941 195.621C336.806 195.629 336.65 195.616 336.48 195.596C336.308 195.575 336.17 195.547 336.065 195.511L332.993 194.453C332.883 194.419 332.858 194.377 332.917 194.329C332.982 194.284 333.078 194.256 333.211 194.256L341.294 194.034C341.431 194.025 341.543 194.005 341.64 193.968C341.741 193.932 341.794 193.887 341.798 193.835Z" fill="#D5D4D5"/>
<path d="M318.11 189.282C317.978 189.278 317.856 189.257 317.735 189.216L315.312 188.382C315.204 188.345 315.143 188.302 315.132 188.252L315.24 188.131L321.834 185.616L321.952 185.492C321.94 185.446 321.88 185.402 321.763 185.361L319.469 184.573C319.36 184.535 319.304 184.492 319.283 184.447L319.397 184.318L321.19 183.634C321.276 183.604 321.379 183.589 321.5 183.588H321.529C321.662 183.592 321.787 183.609 321.891 183.649L330.43 186.576C330.543 186.621 330.611 186.665 330.62 186.711L330.494 186.831L328.704 187.52C328.616 187.549 328.507 187.563 328.378 187.564C328.244 187.564 328.12 187.549 327.998 187.504L325.738 186.727C325.629 186.69 325.507 186.67 325.371 186.665H325.346C325.217 186.665 325.116 186.682 325.031 186.714L318.441 189.229C318.352 189.262 318.242 189.279 318.111 189.281M332.731 194.302C332.607 194.302 332.47 194.278 332.333 194.225L329.563 193.278C329.449 193.241 329.366 193.193 329.321 193.133L329.288 192.974L329.643 192.524L329.616 192.362C329.572 192.309 329.495 192.263 329.385 192.225L325.976 191.055C325.854 191.014 325.721 190.983 325.556 190.973C325.487 190.967 325.42 190.963 325.354 190.962C325.278 190.962 325.206 190.967 325.137 190.978L323.895 191.12C323.829 191.128 323.759 191.132 323.686 191.132C323.616 191.131 323.545 191.129 323.472 191.124C323.311 191.111 323.182 191.082 323.07 191.047L320.292 190.095L320.147 190.023L320.082 189.945L320.138 189.868C320.182 189.845 320.259 189.824 320.372 189.817L333.981 188.022C334.05 188.014 334.122 188.01 334.199 188.01C334.265 188.011 334.334 188.013 334.408 188.018C334.568 188.033 334.708 188.06 334.828 188.099L337.089 188.876C337.199 188.913 337.275 188.96 337.319 189.018L337.331 189.172L333.082 194.21C333.046 194.253 332.958 194.286 332.809 194.298C332.782 194.301 332.757 194.303 332.731 194.302ZM329.043 190.431C329.043 190.464 329.096 190.499 329.204 190.537L330.639 191.03C330.736 191.063 330.83 191.079 330.922 191.079H330.962C331.067 191.071 331.132 191.047 331.155 190.998C331.268 190.877 331.397 190.734 331.542 190.569C331.687 190.403 331.825 190.253 331.945 190.111L331.917 190.018C331.891 190.007 331.852 190.001 331.8 190.002C331.76 190.003 331.712 190.006 331.656 190.01L329.248 190.342C329.127 190.359 329.062 190.384 329.043 190.419V190.431ZM344.914 198.509C344.834 198.509 344.76 198.498 344.692 198.477L341.621 197.424C341.511 197.383 341.427 197.335 341.367 197.279L341.274 197.113L341.636 195.561L341.515 195.444C341.445 195.419 341.353 195.407 341.242 195.408H341.185L336.941 195.622C336.912 195.622 336.884 195.627 336.859 195.627C336.742 195.627 336.618 195.614 336.48 195.598C336.308 195.577 336.17 195.549 336.065 195.513L332.993 194.455C332.924 194.432 332.89 194.407 332.889 194.38C332.889 194.363 332.898 194.347 332.917 194.331C332.982 194.286 333.078 194.258 333.211 194.258L341.294 194.035C341.431 194.027 341.543 194.006 341.64 193.97C341.741 193.934 341.794 193.889 341.798 193.836L341.987 190.828C341.991 190.78 342.056 190.743 342.173 190.718C342.217 190.712 342.262 190.708 342.306 190.707C342.379 190.707 342.45 190.719 342.52 190.743L345.624 191.808C345.725 191.845 345.811 191.893 345.882 191.953L345.97 192.119L345.578 193.736L345.696 193.853C345.773 193.877 345.868 193.889 345.982 193.889H346.03C346.772 193.857 347.518 193.817 348.276 193.779C349.029 193.735 349.763 193.694 350.477 193.658C350.498 193.657 350.518 193.655 350.537 193.654C350.655 193.654 350.788 193.662 350.929 193.687C351.097 193.703 351.231 193.735 351.34 193.772L354.432 194.833C354.512 194.861 354.556 194.894 354.556 194.922C354.556 194.936 354.545 194.949 354.525 194.963C354.455 195.003 354.355 195.027 354.222 195.027L345.946 195.266C345.817 195.27 345.7 195.294 345.603 195.327C345.502 195.367 345.454 195.408 345.45 195.457L345.252 198.392C345.243 198.441 345.176 198.477 345.051 198.501C345.002 198.509 344.958 198.509 344.914 198.509Z" fill="#B4B3B3"/>
<path d="M374.092 200.01C373.7 200.01 373.289 199.95 372.963 199.836L370.528 199.002C370.851 199.103 371.242 199.156 371.612 199.156C371.951 199.156 372.273 199.111 372.507 199.022C373.012 198.831 372.919 198.504 372.297 198.293L333.453 184.947L374.78 199.143C375.398 199.354 375.49 199.682 374.987 199.876C374.752 199.965 374.429 200.01 374.092 200.01Z" fill="#C0BFBF"/>
<path d="M309.374 177.996L306.943 177.161C306.33 176.951 306.238 176.622 306.742 176.429C306.975 176.339 307.302 176.295 307.645 176.295C308.032 176.295 308.442 176.352 308.769 176.465L311.18 177.295C310.865 177.198 310.483 177.15 310.119 177.15C309.777 177.15 309.455 177.191 309.221 177.283C308.732 177.465 308.809 177.786 309.374 177.996Z" fill="#D2D1D2"/>
<path d="M370.527 199.002C370.512 198.994 370.496 198.989 370.48 198.985L326.032 183.717H326.035L370.527 199.002Z" fill="#C0BFBF"/>
<path d="M330.785 184.028L311.181 177.295C311.205 177.303 311.226 177.307 311.245 177.316L330.785 184.028ZM326.036 183.718H326.032L309.423 178.011C309.407 178.008 309.392 178 309.375 177.996L326.036 183.718Z" fill="#D2D1D2"/>
<path d="M371.613 199.155C371.241 199.155 370.851 199.104 370.529 199.002L326.036 183.717C328.527 184.09 331.003 184.498 333.454 184.948L372.298 198.294C372.919 198.505 373.012 198.833 372.507 199.023C372.274 199.112 371.951 199.155 371.613 199.155Z" fill="#A3A1A1"/>
<path d="M333.452 184.948C331.002 184.498 328.527 184.089 326.035 183.716L309.375 177.994C308.81 177.785 308.733 177.466 309.221 177.282C309.455 177.189 309.778 177.148 310.12 177.148C310.483 177.148 310.866 177.197 311.181 177.295L330.785 184.028L333.452 184.948Z" fill="#B1B0B0"/>
<path d="M358.891 205.808C358.499 205.808 358.092 205.747 357.761 205.638L291.747 182.958C291.617 182.911 291.51 182.861 291.424 182.809C292.339 182.684 293.25 182.57 294.169 182.469L318.663 190.883L296.052 183.117C295.722 183.003 295.309 182.942 294.919 182.942C294.58 182.942 294.258 182.987 294.024 183.077C293.515 183.271 293.612 183.596 294.23 183.809L355.282 204.784C355.608 204.897 356.02 204.954 356.411 204.954C356.749 204.954 357.071 204.909 357.309 204.819C357.786 204.638 357.725 204.33 357.181 204.115L359.583 204.942C360.2 205.152 360.289 205.481 359.79 205.674C359.555 205.764 359.228 205.808 358.89 205.808" fill="#C0BFBF"/>
<path d="M291.424 182.81C291.117 182.612 291.145 182.377 291.541 182.227C291.778 182.138 292.101 182.094 292.444 182.094C292.831 182.094 293.242 182.151 293.564 182.264L294.169 182.471C293.251 182.572 292.339 182.685 291.424 182.81Z" fill="#D2D1D2"/>
<path d="M355.875 198.643L339.621 191.41C338.598 190.707 337.247 190.707 336.223 191.41L319.969 198.643C317.54 200.312 318.721 204.116 321.668 204.116H354.176C357.123 204.116 358.304 200.312 355.875 198.643Z" fill="#C0BFBF"/>
<path d="M356.411 204.955C356.019 204.955 355.608 204.898 355.282 204.785L294.229 183.81C293.612 183.595 293.515 183.271 294.023 183.077C294.257 182.988 294.58 182.943 294.919 182.943C295.31 182.943 295.721 183.005 296.051 183.118L318.662 190.883L357.181 204.116C357.724 204.331 357.785 204.639 357.31 204.821C357.072 204.91 356.749 204.955 356.411 204.955Z" fill="#A3A1A1"/>
<path d="M339.193 213.191C339.782 212.867 339.568 212.396 338.65 212.077C338.105 211.891 337.428 211.797 336.787 211.797C336.227 211.797 335.691 211.87 335.304 212.02L332.361 213.142L324.839 210.559C325.85 210.89 327.104 211.06 328.289 211.06C329.362 211.06 330.381 210.924 331.123 210.644C332.699 210.04 332.409 209.016 330.478 208.352L298.18 197.257C298.155 197.246 298.132 197.236 298.112 197.229L338.258 211.02C340.06 211.644 340.431 212.579 339.193 213.191ZM298.035 197.205L297.962 197.181L285.692 192.965C284.66 192.613 283.37 192.431 282.148 192.431C281.08 192.431 280.068 192.568 279.331 192.848C278.355 193.221 278.093 193.755 278.492 194.265C278.073 194.111 277.621 194.026 277.145 194.026H276.714L272.372 192.532L275.32 191.41C276.145 191.095 275.997 190.552 274.977 190.204C274.436 190.017 273.759 189.924 273.118 189.924C272.647 189.924 272.195 189.977 271.833 190.079C272.537 189.864 273.432 189.758 274.371 189.758C275.589 189.758 276.879 189.936 277.907 190.289L298.035 197.205ZM279.846 195.103L279.794 195.083V195.079L279.846 195.103ZM271.466 190.208C271.494 190.199 271.522 190.188 271.55 190.176C271.58 190.164 271.61 190.154 271.639 190.143C271.636 190.145 271.633 190.146 271.63 190.148L271.466 190.208Z" fill="#C0BFBF"/>
<path d="M324.839 210.558C324.811 210.547 324.786 210.538 324.762 210.531L293.492 199.788L324.839 210.558ZM291.223 199.01L279.975 195.148C279.931 195.132 279.89 195.116 279.846 195.104L291.227 199.011L291.223 199.01Z" fill="#ADACAC"/>
<path d="M328.289 211.061C327.103 211.061 325.85 210.891 324.838 210.559L293.492 199.789L298.252 197.975C298.747 197.78 298.708 197.472 298.18 197.258L330.478 208.352C332.408 209.016 332.699 210.041 331.123 210.644C330.381 210.924 329.361 211.061 328.289 211.061ZM291.226 199.011L279.846 195.103L279.794 195.079C279.418 194.727 278.979 194.448 278.492 194.265C278.092 193.755 278.354 193.22 279.33 192.848C280.067 192.568 281.08 192.432 282.147 192.432C283.369 192.432 284.659 192.613 285.691 192.965L297.962 197.181C297.656 197.092 297.293 197.052 296.947 197.052C296.587 197.052 296.241 197.096 295.991 197.193L291.226 199.011Z" fill="#A3A1A1"/>
<path d="M272.057 192.654C272.159 192.609 272.243 192.562 272.308 192.512L272.372 192.533L272.057 192.654ZM268.349 191.399L271.466 190.208C270.771 190.492 270.469 190.864 270.542 191.24C270.288 191.212 270.032 191.199 269.775 191.2C269.244 191.2 268.732 191.265 268.349 191.399ZM271.638 190.143C271.699 190.119 271.763 190.097 271.832 190.078C271.768 190.099 271.703 190.121 271.638 190.143Z" fill="#C0BFBF"/>
<path d="M272.372 192.531L272.308 192.51C272.735 192.191 272.488 191.77 271.638 191.479C271.312 191.365 270.933 191.284 270.542 191.24C270.47 190.863 270.771 190.491 271.465 190.207L271.63 190.147C271.632 190.145 271.635 190.144 271.638 190.143C271.703 190.118 271.767 190.097 271.832 190.077C272.194 189.976 272.646 189.924 273.118 189.924C273.758 189.924 274.436 190.017 274.975 190.204C275.996 190.551 276.145 191.094 275.319 191.409L272.372 192.531Z" fill="#A3A1A1"/>
<path d="M268.466 194.027H268.458L272.057 192.654C272.033 192.663 272.006 192.674 271.977 192.687L268.466 194.027ZM261.464 194.027L268.296 191.419C268.314 191.41 268.332 191.403 268.349 191.398L262.983 193.448C262.976 193.448 262.968 193.451 262.959 193.456C262.951 193.457 262.943 193.459 262.935 193.464L261.464 194.027Z" fill="#ADACAC"/>
<path d="M268.458 194.026H266.459L264.918 193.495C264.592 193.381 264.188 193.329 263.81 193.329C263.496 193.329 263.201 193.366 262.984 193.447L268.349 191.398C268.731 191.264 269.244 191.199 269.776 191.199C270.031 191.199 270.287 191.212 270.542 191.241C270.623 191.673 271.182 192.122 272.194 192.471L272.308 192.512C272.243 192.561 272.159 192.608 272.057 192.654L268.458 194.026ZM262.891 194.026H261.464L262.935 193.463C262.576 193.608 262.572 193.836 262.891 194.026Z" fill="#A3A1A1"/>
<path d="M272.307 192.511L272.195 192.472C271.183 192.123 270.623 191.674 270.542 191.24C270.933 191.285 271.312 191.366 271.638 191.479C272.489 191.771 272.735 192.192 272.308 192.512" fill="#8B8889"/>
<path d="M288.74 201.602L293.488 199.788H293.492L288.74 201.602ZM286.366 200.866L291.224 199.011H291.228L286.366 200.866ZM298.113 197.23L298.036 197.205L298.077 197.218L298.113 197.23Z" fill="#C0BFBF"/>
<path d="M298.179 197.256L297.963 197.18L298.035 197.204L298.112 197.228C298.133 197.235 298.156 197.245 298.18 197.256" fill="#A3A1A1"/>
<path d="M293.491 199.787L296.135 198.78C296.664 198.577 296.583 198.241 295.959 198.026C295.632 197.912 295.221 197.856 294.83 197.856C294.467 197.856 294.124 197.905 293.87 198.001L291.226 199.01L295.991 197.192C296.241 197.095 296.587 197.051 296.947 197.051C297.293 197.051 297.655 197.091 297.962 197.18L298.179 197.257C298.708 197.472 298.748 197.78 298.252 197.973L293.491 199.787Z" fill="#8B8889"/>
<path d="M282.72 203.897H282.717L286.897 202.302L282.72 203.897Z" fill="#ADACAC"/>
<path d="M282.717 203.898L281 203.307V202.91L284.631 201.526L286.897 202.303L282.717 203.898ZM288.63 201.642L286.365 200.864L291.226 199.01L293.488 199.787L288.74 201.601L288.63 201.642Z" fill="#A3A1A1"/>
<path d="M293.338 199.146L292.558 199.071C292.438 198.989 292.28 198.989 292.16 199.071L291.379 199.146C291.095 199.342 291.233 199.787 291.578 199.787H293.14C293.485 199.787 293.623 199.342 293.338 199.146Z" fill="#7E7B7C"/>
<path d="M293.491 199.787L291.226 199.009L293.87 198.002C294.124 197.904 294.467 197.855 294.83 197.855C295.221 197.855 295.632 197.912 295.959 198.025C296.583 198.24 296.664 198.576 296.135 198.779L293.491 199.787Z" fill="#787576"/>
<path d="M318.707 220.978C318.913 220.8 318.752 220.564 318.263 220.394L315.905 219.585C315.885 219.576 315.864 219.569 315.844 219.564L315.679 219.508L318.719 218.346C317.965 218.665 318.139 219.188 319.126 219.524C319.666 219.71 320.347 219.808 320.989 219.808C321.529 219.808 322.04 219.738 322.423 219.6L319.13 220.86C319.005 220.904 318.86 220.945 318.707 220.978ZM325.629 218.382L335.649 214.555C336.21 214.341 336.323 214.026 336.021 213.738H336.078C337.146 213.738 338.162 213.597 338.899 213.317C339.004 213.276 339.105 213.236 339.193 213.191C339.133 213.224 339.064 213.256 338.987 213.285L325.629 218.382ZM331.216 213.58L332.36 213.143L332.425 213.163C332.26 213.2 332.102 213.24 331.965 213.293L331.216 213.58Z" fill="#C0BFBF"/>
<path d="M336.078 213.736H336.021C335.877 213.595 335.639 213.467 335.307 213.353C334.767 213.166 334.095 213.073 333.454 213.073C333.09 213.073 332.735 213.101 332.426 213.162L332.361 213.141L335.304 212.02C335.691 211.87 336.227 211.797 336.787 211.797C337.428 211.797 338.105 211.89 338.65 212.077C339.568 212.396 339.782 212.867 339.194 213.19C339.104 213.234 339.006 213.276 338.9 213.315C338.162 213.595 337.145 213.736 336.078 213.736Z" fill="#A3A1A1"/>
<path d="M322.423 219.602L325.628 218.383L322.467 219.585C322.454 219.593 322.44 219.598 322.423 219.602ZM318.718 218.346L318.787 218.321L319.86 217.913L318.718 218.346ZM321.589 217.253H321.585L325.765 215.656L321.589 217.253Z" fill="#ADACAC"/>
<path d="M320.989 219.807C320.347 219.807 319.666 219.709 319.126 219.522C318.139 219.187 317.965 218.664 318.719 218.345L319.86 217.912L320.025 217.968L320.093 217.993L322.448 218.798C322.774 218.912 323.181 218.968 323.561 218.968C323.883 218.968 324.185 218.927 324.403 218.844C324.883 218.664 324.782 218.349 324.177 218.142L321.59 217.251L325.765 215.655L328.357 216.547C328.68 216.661 329.083 216.716 329.462 216.716C329.785 216.716 330.091 216.672 330.313 216.592C330.788 216.409 330.692 216.094 330.086 215.887L327.499 214.996L331.216 213.579L331.965 213.292C332.102 213.239 332.259 213.198 332.425 213.162L332.542 213.203C333.558 213.551 334.82 213.729 336.02 213.736C336.323 214.025 336.211 214.34 335.65 214.555L325.629 218.38L322.423 219.6C322.041 219.737 321.529 219.807 320.989 219.807Z" fill="#A3A1A1"/>
<path d="M336.021 213.738C334.82 213.73 333.558 213.551 332.543 213.204L332.426 213.162C332.735 213.102 333.091 213.074 333.454 213.074C334.094 213.074 334.768 213.168 335.307 213.354C335.637 213.468 335.876 213.596 336.021 213.738Z" fill="#8B8889"/>
<path d="M317.642 221.223C317.268 221.223 316.861 221.166 316.534 221.057L314.163 220.238C314.43 220.324 314.744 220.373 315.051 220.384C315.191 220.535 315.438 220.677 315.784 220.798C316.328 220.985 317.005 221.078 317.646 221.078C318.025 221.078 318.392 221.045 318.707 220.976C318.658 221.021 318.586 221.062 318.494 221.098C318.272 221.183 317.969 221.223 317.642 221.223Z" fill="#C0BFBF"/>
<path d="M317.646 221.079C317.006 221.079 316.328 220.985 315.784 220.799C315.438 220.678 315.191 220.536 315.051 220.385C315.106 220.389 315.167 220.389 315.224 220.389C315.546 220.389 315.852 220.349 316.074 220.268C316.534 220.09 316.453 219.791 315.905 219.584L318.263 220.394C318.751 220.564 318.912 220.798 318.707 220.977C318.392 221.046 318.026 221.078 317.646 221.078" fill="#A3A1A1"/>
<path d="M314.165 220.239C314.147 220.236 314.129 220.231 314.111 220.224L280.999 208.85V208.846L314.165 220.239ZM315.677 219.506L281.001 207.594V207.59L315.681 219.506H315.677Z" fill="#ADACAC"/>
<path d="M315.906 219.585L315.675 219.508H315.68L315.845 219.564C315.865 219.569 315.886 219.576 315.906 219.585Z" fill="#7F7C7D"/>
<path d="M315.051 220.386C314.745 220.375 314.43 220.326 314.164 220.241L280.999 208.847V207.596L315.676 219.508L315.445 219.597C314.902 219.803 314.781 220.107 315.051 220.386Z" fill="#A3A1A1"/>
<path d="M315.225 220.39C315.168 220.39 315.107 220.39 315.051 220.386C314.781 220.106 314.902 219.803 315.445 219.597L315.676 219.508L315.906 219.585C316.454 219.792 316.535 220.09 316.075 220.269C315.853 220.35 315.547 220.39 315.225 220.39Z" fill="#8B8889"/>
<path d="M323.561 218.969C323.181 218.969 322.774 218.913 322.448 218.799L320.093 217.993C320.408 218.091 320.783 218.138 321.138 218.138C321.457 218.138 321.759 218.098 321.977 218.014C322.455 217.831 322.355 217.515 321.755 217.309L321.59 217.252L324.177 218.143C324.782 218.35 324.883 218.665 324.404 218.843C324.185 218.928 323.883 218.969 323.561 218.969Z" fill="#8B8889"/>
<path d="M320.078 217.927L319.998 217.919C319.985 217.91 319.969 217.91 319.956 217.919L319.876 217.927C319.847 217.947 319.861 217.993 319.897 217.993H320.057C320.093 217.993 320.107 217.947 320.078 217.927Z" fill="#605D5D"/>
<path d="M319.86 217.913L281 204.562V204.555L282.72 203.898L306.569 212.09L321.585 217.253L319.86 217.913Z" fill="#A3A1A1"/>
<path d="M282.605 204.033L282.036 203.958C281.932 203.879 281.788 203.879 281.684 203.958L281.115 204.033C280.893 204.202 281.013 204.555 281.291 204.555H282.429C282.707 204.555 282.826 204.202 282.605 204.033Z" fill="#7E7B7C"/>
<path d="M282.637 203.846L282.23 203.502C282.051 203.242 281.666 203.242 281.487 203.502L281.08 203.846C280.874 204.146 281.088 204.554 281.452 204.554H282.265C282.629 204.554 282.843 204.146 282.637 203.846Z" fill="#787576"/>
<path d="M321.475 217.387L320.903 217.312C320.798 217.232 320.652 217.232 320.548 217.312L319.976 217.387C319.753 217.557 319.874 217.912 320.153 217.912H321.297C321.577 217.912 321.697 217.557 321.475 217.387Z" fill="#7E7B7C"/>
<path d="M321.138 218.138C320.783 218.138 320.408 218.091 320.094 217.993L319.86 217.912L321.59 217.252L321.755 217.309C322.356 217.515 322.457 217.831 321.977 218.014C321.759 218.098 321.457 218.138 321.138 218.138Z" fill="#787576"/>
<path d="M325.765 215.658L286.897 202.303H286.901L325.765 215.658ZM327.495 214.997L288.63 201.643L327.499 214.997H327.495ZM284.631 201.526L280.999 200.279V200.275L284.635 201.526H284.631ZM286.365 200.866L280.999 199.024V199.02L286.365 200.866Z" fill="#C0BFBF"/>
<path d="M290.51 201.744C291.681 200.572 293.581 200.572 294.752 201.744L299.752 206.744C300.924 207.915 300.924 209.815 299.752 210.987L294.752 215.987C293.581 217.158 291.681 217.158 290.51 215.987L285.51 210.987C284.338 209.815 284.338 207.915 285.51 206.744L290.51 201.744Z" fill="#8B8889"/>
<path d="M329.462 216.717C329.083 216.717 328.681 216.661 328.358 216.547L325.766 215.655L325.935 215.713C326.262 215.826 326.669 215.883 327.048 215.883C327.37 215.883 327.673 215.842 327.89 215.761C328.365 215.58 328.265 215.259 327.66 215.053L327.495 214.996H327.499L330.088 215.888C330.692 216.094 330.789 216.409 330.314 216.592C330.092 216.672 329.785 216.717 329.462 216.717Z" fill="#8B8889"/>
<path d="M262.98 193.45L262.964 193.449C262.961 193.447 262.958 193.447 262.955 193.449L262.939 193.45C262.933 193.454 262.936 193.464 262.943 193.464H262.976C262.983 193.464 262.986 193.454 262.98 193.45Z" fill="#939192"/>
<path d="M266.459 194.027H262.892C262.573 193.836 262.577 193.609 262.936 193.464L262.983 193.447C263.201 193.366 263.496 193.33 263.81 193.33C264.189 193.33 264.592 193.382 264.918 193.496L266.459 194.027Z" fill="#8B8889"/>
<path d="M325.765 215.657L286.901 202.303L288.63 201.643L327.495 214.997L325.765 215.657ZM284.635 201.526L280.999 200.275V199.023L286.365 200.865L285.232 201.295L284.635 201.526Z" fill="#A3A1A1"/>
<path d="M290.514 201.744C291.685 200.572 293.585 200.572 294.756 201.744L299.756 206.744C300.928 207.915 300.928 209.815 299.756 210.987L294.756 215.987C293.585 217.158 291.685 217.158 290.514 215.987L285.514 210.987C284.342 209.815 284.342 207.915 285.514 206.744L290.514 201.744Z" fill="#787576"/>
<path d="M327.048 215.883C326.669 215.883 326.262 215.826 325.935 215.713L325.766 215.656L327.495 214.996L327.66 215.053C328.265 215.26 328.366 215.58 327.89 215.761C327.674 215.843 327.37 215.883 327.048 215.883Z" fill="#787576"/>
<path d="M292.794 230.408C292.786 230.403 292.778 230.4 292.77 230.4C292.758 230.396 292.746 230.391 292.734 230.383L292.794 230.408ZM295.008 230.364C295.31 230.17 295.165 229.902 294.632 229.721L293.46 229.316L296.607 228.113L294.714 228.838C294.181 229.04 294.266 229.377 294.89 229.59C295.217 229.704 295.624 229.76 296.015 229.76C296.366 229.76 296.704 229.716 296.954 229.624L295.008 230.364Z" fill="#ACA8B1"/>
<path d="M293.906 230.566C293.524 230.566 293.117 230.513 292.794 230.407L292.734 230.383C292.146 230.173 292.077 229.84 292.588 229.646L293.459 229.314L294.632 229.719C295.164 229.901 295.31 230.169 295.007 230.362L294.854 230.424C294.608 230.521 294.265 230.566 293.906 230.566Z" fill="#928E96"/>
<path d="M300.364 228.322C300.832 228.115 300.736 227.796 300.134 227.589C299.808 227.475 299.397 227.419 299.006 227.419C298.664 227.419 298.337 227.464 298.088 227.549L299.3 227.087L300.474 227.491C300.796 227.601 301.207 227.662 301.595 227.662C301.84 227.662 302.073 227.637 302.276 227.593L300.364 228.322ZM302.272 226.788L302.223 226.771C302.231 226.774 302.239 226.776 302.247 226.779C302.255 226.783 302.267 226.784 302.272 226.788Z" fill="#ACA8B1"/>
<path d="M301.595 227.66C301.208 227.66 300.796 227.6 300.474 227.491L299.301 227.087L300.168 226.758C300.418 226.661 300.764 226.613 301.128 226.613C301.506 226.613 301.902 226.665 302.223 226.771L302.272 226.786C302.881 227.005 302.949 227.334 302.429 227.532L302.276 227.593C302.074 227.636 301.841 227.66 301.595 227.66Z" fill="#928E96"/>
<path d="M296.954 229.622L300.365 228.322C300.35 228.326 300.332 228.333 300.313 228.343L296.975 229.614L296.954 229.622ZM296.607 228.112L298.051 227.564C298.063 227.557 298.075 227.552 298.087 227.549L296.607 228.112Z" fill="#8C8693"/>
<path d="M296.015 229.759C295.624 229.759 295.218 229.703 294.89 229.589C294.266 229.375 294.181 229.04 294.714 228.837L296.609 228.111L298.088 227.549C298.337 227.464 298.664 227.42 299.006 227.42C299.398 227.42 299.809 227.476 300.135 227.59C300.736 227.796 300.833 228.115 300.365 228.323L296.954 229.623C296.705 229.716 296.366 229.759 296.015 229.759Z" fill="#928E96"/>
<ellipse cx="150.402" cy="152.266" rx="97.2322" ry="87.7055" fill="#6060B6"/>
<ellipse cx="116.284" cy="120.54" rx="51.8295" ry="47.2388" fill="#716FBF"/>
<path d="M247.073 188.013C243.889 168.157 239.828 148.304 234.89 128.451C225.437 95.7952 195.904 66.225 172.773 64.9977C161.768 64.5686 144.084 64.4587 133.078 64.666C136.976 65.3418 132.288 65.4434 137.867 66.3059C147.857 67.8483 159.293 71.0026 162.917 72.6269C170.02 75.8133 177.042 79.7087 182.649 85.2233C195.215 97.5926 202.556 115.721 206.938 132.574C211.252 149.17 215.431 170.517 210.969 187.495C207.3 201.44 195.421 207.254 182.441 210.673C162.482 215.924 142.047 219.973 121.331 219.969C105.847 219.969 88.1499 219.094 74.7629 210.215C63.8218 202.959 57.8641 192.184 56.0736 179.252C55.9405 178.279 55.8363 177.303 55.7351 176.324C55.0375 180.219 54.3564 184.114 53.7321 188.014C49.3502 213.013 71.1386 236.611 100.187 238.526C133.667 240.454 167.137 240.454 200.613 238.526C229.661 236.611 251.455 213.012 247.073 188.013Z" fill="#4950AB"/>
<path d="M196.336 9.30233C192.688 9.17276 188.943 9.11575 185.343 10.0881C182.247 10.9215 179.32 12.9459 176.209 13.5937C173.084 14.2416 169.645 15.4202 167.807 11.0189C167.517 10.314 167.393 9.35831 167.4 8.54875C167.429 4.93319 165.961 1.98104 163.421 1.26063C161.168 0.628319 158.959 0.555758 156.677 0.572343C151.074 0.608623 143.588 1.29276 138.311 4.36204C132.675 7.64175 136.464 8.05845 135.835 12.5292C135.662 13.7834 135.368 15.2419 134.344 15.6596C130.144 17.3762 124.742 13.4082 120.429 13.46C116.619 13.5087 111.636 14.424 108.762 18.4324C107.5 20.1905 106.73 22.2304 105.916 24.2714C113.305 47.0677 127.177 65.4668 138.428 66.3696C147.062 66.881 155.698 66.881 164.337 66.3696C177.607 65.3092 194.518 39.9008 200.142 11.6543C199.609 10.2902 198.501 9.38008 196.336 9.30233Z" fill="#6060B6"/>
<path d="M196.335 9.30233C192.687 9.17276 188.942 9.11575 185.342 10.0881C182.247 10.9215 179.32 12.9459 176.208 13.5937C173.083 14.2416 169.645 15.4202 167.807 11.0189C167.517 10.314 167.392 9.35831 167.399 8.54875C167.428 4.93319 165.961 1.98104 163.421 1.26063C161.167 0.628319 158.959 0.555758 156.677 0.572343C151.073 0.608623 143.587 1.29276 138.311 4.36204C132.675 7.64175 136.463 8.05845 135.835 12.5292C135.662 13.7834 135.367 15.2419 134.344 15.6596C130.144 17.3762 124.741 13.4082 120.428 13.46C116.618 13.5087 111.636 14.424 108.762 18.4324C108.169 19.2586 107.69 20.15 107.262 21.0726C112.887 17.9877 121.029 18.5382 126.128 21.9951C131.006 25.2997 130.499 32.5961 134.888 36.277C142.596 42.7317 141.282 18.5019 141.592 15.87C141.762 14.396 141.104 10.2249 142.282 9.55318C147.857 6.39165 153.721 3.18346 161.672 5.65776C165.183 6.75548 163.969 9.67446 165.671 16.8579C166.178 19.0119 166.912 21.6157 167.477 23.7739C168.004 25.7817 169.819 28.3327 171.878 26.4659C174.023 24.5181 173.422 20.7937 175.877 18.8367C180.844 14.8739 197.017 13.1086 193.8 23.5469C191.619 30.6287 187.664 36.8398 184.02 43.2334C181.497 47.6554 178.474 53.3679 173.793 55.8868C167.541 59.2515 160.471 59.1416 153.552 58.8472C146.687 58.5549 139.024 59.7947 132.32 58.0325C126.289 56.4497 121.456 53.0528 117.369 48.7562C124.025 59.0214 131.135 65.7663 137.867 66.3054C146.502 66.8154 155.698 66.8807 164.336 66.3696C177.607 65.3092 194.518 39.9008 200.141 11.6543C199.609 10.2902 198.5 9.38008 196.335 9.30233Z" fill="#4950AB"/>
<path d="M165.154 174.879C164.557 177.968 163.095 180.85 161.006 183.082C159.35 184.868 157.29 186.204 155.064 186.965C154.867 183.932 154.689 180.9 154.548 177.871C154.181 170.545 154.016 163.221 153.955 155.9C155.71 156.33 157.39 157.115 158.885 158.204C161.385 159.986 163.288 162.634 164.36 165.574C165.449 168.513 165.715 171.786 165.154 174.879ZM137.226 138.743C136.266 135.914 136.101 132.787 136.71 129.884C137.315 126.985 138.71 124.297 140.677 122.243C142.18 120.659 144.01 119.478 145.966 118.794C146.136 121.433 146.283 124.076 146.405 126.721C146.763 133.973 146.909 141.225 146.933 148.477C145.24 147.963 143.648 147.129 142.258 146.015C139.931 144.161 138.173 141.582 137.226 138.743ZM162.795 152.931C160.188 151.049 157.112 149.789 153.936 149.291C153.947 141.768 154.093 134.245 154.463 126.721C154.579 124.187 154.717 121.655 154.879 119.125C155.093 119.214 155.306 119.308 155.507 119.412C157.866 120.608 159.861 122.587 161.175 124.968C162.497 127.377 163.135 130.037 163.042 132.909L163.038 133.188C163.094 136.201 165.573 138.597 168.572 138.537C171.567 138.48 173.954 135.989 173.897 132.981L173.893 132.779C173.805 128.276 172.48 123.543 170.003 119.631C167.54 115.688 163.92 112.42 159.599 110.521C158.33 109.958 157.011 109.541 155.668 109.233C155.931 106.54 156.221 103.843 156.584 101.148C156.648 100.616 156.652 100.042 156.584 99.4875C156.129 96.0772 153.004 93.6848 149.606 94.1419C146.211 94.6001 143.829 97.7388 144.289 101.147C144.655 103.913 144.949 106.678 145.22 109.444C140.895 110.618 137.048 113.148 134.242 116.432C131.288 119.866 129.413 124.093 128.737 128.459C128.059 132.819 128.539 137.306 130.15 141.391C131.755 145.469 134.5 149.093 138.076 151.652C140.677 153.53 143.745 154.79 146.92 155.292C146.865 162.815 146.699 170.343 146.325 177.869C146.187 180.781 146.02 183.693 145.824 186.604C145.513 186.467 145.208 186.319 144.909 186.158C143.64 185.485 142.47 184.616 141.466 183.575C140.496 182.505 139.689 181.287 139.064 179.999C138.448 178.707 137.996 177.335 137.831 175.925C137.645 174.497 137.633 173.18 137.882 171.678C137.936 171.355 137.964 170.99 137.955 170.65C137.899 167.585 135.375 165.147 132.324 165.208C129.269 165.265 126.845 167.8 126.902 170.865L126.922 171.808C127.011 176.323 128.346 181.06 130.829 184.98C133.295 188.928 136.919 192.199 141.253 194.101C142.506 194.657 143.817 195.074 145.147 195.377C144.898 198.066 144.623 200.751 144.289 203.44C144.228 203.937 144.22 204.481 144.289 204.999C144.716 208.408 147.816 210.824 151.21 210.392C154.609 209.963 157.011 206.849 156.584 203.44C156.233 200.678 155.954 197.921 155.705 195.159C160.018 193.981 163.844 191.45 166.65 188.17C169.601 184.733 171.48 180.498 172.152 176.128C172.825 171.764 172.341 167.277 170.728 163.188C169.12 159.114 166.371 155.486 162.795 152.931Z" fill="white"/>
<rect x="212.142" y="194.025" width="68.8573" height="47.9248" rx="19.1699" fill="#FBD13B"/>
<path d="M215.775 215.38C216.79 210.7 217.971 205.25 221.773 201.978C225.747 198.553 230.859 197.565 235.918 196.864C239.45 196.374 243.009 196.172 246.568 196.006H218.362C216.238 196.006 214.517 197.739 214.517 199.872V222.459C214.887 220.094 215.266 217.725 215.774 215.38" fill="#FDE760"/>
<path d="M277.145 194.025H272.505V223.138C272.505 225.272 270.779 227.001 268.656 227.001H212.142V230.163C212.142 232.298 213.867 234.03 215.991 234.03H277.145C279.278 234.03 280.999 232.298 280.999 230.163V197.892C280.999 195.754 279.278 194.025 277.145 194.025Z" fill="#F8B02F"/>
<rect x="212.142" y="229.516" width="68.8573" height="16" rx="4.97388" fill="#6060B6"/>
<path d="M272.627 229.516V234.76C272.627 236.897 270.9 238.626 268.776 238.626H212.186C212.449 240.505 214.048 241.95 215.991 241.95H277.145C279.278 241.95 280.999 240.221 280.999 238.084V229.516H272.627Z" fill="#5554AE"/>
<rect x="216.948" y="199.42" width="18.1847" height="16" rx="5.02695" fill="#6060B6"/>
<path d="M233.98 199.42H231.396V208.089C231.396 208.732 230.88 209.251 230.243 209.251H216.948V210.826C216.948 211.466 217.464 211.987 218.1 211.987H233.98C234.616 211.987 235.132 211.466 235.132 210.826V200.582C235.132 199.942 234.616 199.42 233.98 199.42Z" fill="#5554AE"/>
<path d="M258.457 209.574H256.933C257.311 209.574 257.618 209.266 257.618 208.886C257.618 208.501 257.311 208.193 256.933 208.193H239.981C239.602 208.193 239.296 208.501 239.296 208.886C239.296 209.266 239.602 209.574 239.981 209.574H238.462C238.079 209.574 237.773 209.266 237.773 208.886C237.773 208.501 238.079 208.193 238.462 208.193H258.457C258.839 208.193 259.146 208.501 259.146 208.886C259.146 209.266 258.84 209.574 258.457 209.574Z" fill="#D2AE31"/>
<path d="M256.933 209.574H239.982C239.603 209.574 239.297 209.266 239.297 208.886C239.297 208.501 239.603 208.193 239.982 208.193H256.933C257.312 208.193 257.618 208.501 257.618 208.886C257.618 209.266 257.312 209.574 256.933 209.574Z" fill="#B09129"/>
<path d="M268.728 211.988H267.204C267.584 211.988 267.893 211.68 267.893 211.3C267.893 210.919 267.584 210.607 267.204 210.607H239.981C239.602 210.607 239.296 210.918 239.296 211.3C239.296 211.68 239.602 211.988 239.981 211.988H238.462C238.079 211.988 237.773 211.68 237.773 211.3C237.773 210.919 238.079 210.607 238.462 210.607H268.728C269.107 210.607 269.418 210.918 269.418 211.3C269.418 211.68 269.108 211.988 268.728 211.988Z" fill="#D2AE31"/>
<path d="M267.205 211.988H239.982C239.603 211.988 239.297 211.68 239.297 211.3C239.297 210.919 239.603 210.607 239.982 210.607H267.206C267.583 210.607 267.894 210.918 267.894 211.3C267.894 211.68 267.584 211.988 267.205 211.988Z" fill="#B09129"/>
<path d="M237.633 219.433H236.108C236.487 219.433 236.797 219.127 236.797 218.745C236.797 218.365 236.487 218.053 236.108 218.053H219.161C218.778 218.053 218.476 218.365 218.476 218.745C218.476 219.127 218.778 219.433 219.161 219.433H217.634C217.258 219.433 216.948 219.127 216.948 218.745C216.948 218.365 217.257 218.053 217.633 218.053H237.633C238.011 218.053 238.321 218.365 238.321 218.745C238.321 219.127 238.012 219.433 237.632 219.433" fill="#D2AE31"/>
<path d="M236.108 219.433H219.16C218.777 219.433 218.475 219.127 218.475 218.745C218.475 218.365 218.777 218.053 219.16 218.053H236.107C236.486 218.053 236.795 218.365 236.795 218.745C236.795 219.127 236.486 219.433 236.106 219.433" fill="#B09129"/>
<path d="M245.162 225.969H243.635C244.017 225.969 244.323 225.661 244.323 225.28C244.323 224.9 244.018 224.588 243.634 224.588H219.161C218.778 224.588 218.476 224.899 218.476 225.28C218.476 225.661 218.778 225.969 219.161 225.969H217.634C217.258 225.969 216.948 225.661 216.948 225.28C216.948 224.9 217.257 224.588 217.633 224.588H245.162C245.541 224.588 245.852 224.899 245.852 225.28C245.852 225.661 245.542 225.969 245.162 225.969Z" fill="#D2AE31"/>
<path d="M243.633 225.969H219.161C218.778 225.969 218.476 225.661 218.476 225.28C218.476 224.9 218.778 224.588 219.161 224.588H243.633C244.017 224.588 244.323 224.899 244.323 225.28C244.323 225.661 244.017 225.969 243.633 225.969Z" fill="#B09129"/>
<path d="M245.162 222.701H243.635C244.017 222.701 244.323 222.393 244.323 222.013C244.323 221.632 244.018 221.32 243.634 221.32H219.161C218.778 221.32 218.476 221.631 218.476 222.013C218.476 222.393 218.778 222.701 219.161 222.701H217.634C217.258 222.701 216.948 222.393 216.948 222.013C216.948 221.632 217.257 221.32 217.633 221.32H245.162C245.541 221.32 245.852 221.631 245.852 222.013C245.852 222.393 245.542 222.701 245.162 222.701Z" fill="#D2AE31"/>
<path d="M243.633 222.701H219.161C218.778 222.701 218.476 222.393 218.476 222.013C218.476 221.632 218.778 221.32 219.161 221.32H243.633C244.017 221.32 244.323 221.631 244.323 222.013C244.323 222.393 244.017 222.701 243.633 222.701Z" fill="#B09129"/>
<path d="M276.194 221.289C276.194 223.872 274.106 225.969 271.529 225.969H251.73C249.154 225.969 247.07 223.872 247.07 221.288C247.07 218.697 249.155 216.6 251.73 216.6H271.531C274.107 216.6 276.196 218.698 276.196 221.289" fill="#6060B6"/>
<path d="M271.53 216.601H271.228C271.824 217.388 272.179 218.369 272.179 219.434C272.179 222.022 270.095 224.119 267.519 224.119H248.025C248.875 225.24 250.213 225.969 251.73 225.969H271.53C274.106 225.969 276.195 223.872 276.195 221.288C276.195 218.697 274.106 216.601 271.53 216.601Z" fill="#5554AE"/>
<path d="M304.416 233.251C304.416 241.263 297.946 247.766 289.96 247.766C287.663 247.766 285.526 247.159 283.562 246.268C282.103 245.608 279.217 243.3 279.217 243.3C279.217 243.143 275.508 238.211 275.508 233.251C275.508 225.224 281.983 218.726 289.96 218.726C292.04 218.726 293.221 218.467 295.006 219.257C296.08 219.731 297.865 221.029 298.78 221.738C302.211 224.395 304.415 228.561 304.415 233.251" fill="#F1511F"/>
<ellipse cx="288.618" cy="232.28" rx="14.4556" ry="14.5182" fill="#F68334"/>
<circle cx="283.343" cy="226.943" r="8" fill="#F9A745"/>
<path d="M293.803 218.727C298.104 221.095 300.998 225.505 300.998 230.558C300.998 238.114 294.527 244.236 286.543 244.236C282.813 244.236 279.412 242.899 276.851 240.705C279.476 244.394 283.766 246.799 288.618 246.799C296.605 246.799 303.074 240.3 303.074 232.283C303.074 226.096 299.225 220.819 293.803 218.727Z" fill="#F36728"/>
<ellipse cx="288.622" cy="232.282" rx="11.4122" ry="11.4634" fill="#F35E22"/>
<ellipse cx="288.62" cy="232.28" rx="10.9711" ry="11.0198" fill="#FBD13B"/>
<circle cx="286.395" cy="230.176" r="8" fill="#FDE965"/>
<path d="M293.204 222.273C295.999 224.143 297.821 227.218 297.821 230.7C297.821 236.408 292.91 241.036 286.852 241.036C284.002 241.036 281.403 240.012 279.451 238.331C281.414 241.325 284.783 243.3 288.617 243.3C294.68 243.3 299.59 238.368 299.59 232.283C299.59 227.836 296.969 224.014 293.204 222.273Z" fill="#FABF23"/>
<path d="M290.94 235.838C290.847 236.323 290.618 236.777 290.288 237.13C290.03 237.413 289.702 237.619 289.352 237.737C289.323 237.263 289.297 236.786 289.271 236.307C289.214 235.157 289.191 234.007 289.178 232.854C289.457 232.918 289.719 233.048 289.952 233.213C290.347 233.493 290.646 233.914 290.815 234.376C290.988 234.838 291.029 235.351 290.94 235.838ZM286.547 230.152C286.397 229.707 286.373 229.217 286.465 228.76C286.562 228.306 286.784 227.881 287.091 227.558C287.328 227.31 287.615 227.124 287.924 227.015C287.953 227.431 287.973 227.844 287.993 228.262C288.05 229.404 288.07 230.542 288.078 231.679C287.808 231.598 287.562 231.477 287.34 231.299C286.977 231.008 286.7 230.602 286.547 230.152ZM290.572 232.388C290.158 232.088 289.678 231.894 289.177 231.817C289.177 230.63 289.202 229.449 289.258 228.262C289.277 227.864 289.3 227.468 289.327 227.072L289.427 227.112C289.794 227.302 290.108 227.614 290.319 227.983C290.52 228.366 290.625 228.784 290.609 229.237V229.279C290.617 229.752 291.008 230.129 291.48 230.124C291.951 230.112 292.326 229.723 292.313 229.25V229.213C292.306 228.504 292.093 227.764 291.705 227.148C291.318 226.529 290.745 226.01 290.069 225.715C289.867 225.626 289.661 225.561 289.452 225.513C289.488 225.087 289.535 224.663 289.593 224.241V223.978C289.516 223.444 289.029 223.066 288.496 223.14C287.965 223.208 287.585 223.703 287.662 224.241C287.715 224.673 287.761 225.108 287.803 225.545C287.126 225.731 286.517 226.124 286.077 226.646C285.614 227.185 285.32 227.848 285.21 228.537C285.106 229.222 285.182 229.93 285.432 230.569C285.686 231.214 286.117 231.785 286.682 232.186C287.089 232.481 287.573 232.68 288.069 232.756C288.065 233.943 288.037 235.125 287.976 236.308C287.96 236.769 287.927 237.227 287.904 237.684L287.754 237.615C287.557 237.506 287.372 237.368 287.214 237.206C287.061 237.04 286.936 236.846 286.84 236.643C286.737 236.441 286.671 236.228 286.642 236.004C286.614 235.781 286.61 235.575 286.65 235.335L286.662 235.174C286.65 234.697 286.255 234.311 285.775 234.319C285.3 234.328 284.912 234.724 284.924 235.206L284.928 235.356C284.941 236.068 285.15 236.813 285.541 237.429C285.928 238.052 286.501 238.563 287.186 238.867C287.379 238.952 287.581 239.012 287.791 239.064C287.75 239.486 287.71 239.911 287.662 240.333V240.575C287.722 241.117 288.214 241.495 288.746 241.425C289.282 241.357 289.661 240.871 289.592 240.333C289.541 239.895 289.496 239.462 289.456 239.033C290.133 238.846 290.738 238.445 291.177 237.931C291.645 237.389 291.935 236.724 292.044 236.036C292.148 235.348 292.075 234.643 291.817 233.999C291.568 233.36 291.133 232.788 290.572 232.388Z" fill="#FDE965"/>
<path d="M214.443 235.449C214.443 243.466 207.973 249.968 199.988 249.968C197.69 249.968 195.55 249.362 193.586 248.47C192.127 247.81 189.237 245.503 189.237 245.503C189.237 245.341 185.532 240.413 185.532 235.448C185.532 227.431 192.003 220.929 199.987 220.929C202.059 220.929 203.248 220.665 205.031 221.459C206.099 221.933 207.893 223.232 208.803 223.941C212.235 226.593 214.443 230.764 214.443 235.449Z" fill="#F1511F"/>
<ellipse cx="198.646" cy="234.485" rx="14.4561" ry="14.5203" fill="#F68334"/>
<circle cx="193.367" cy="229.146" r="8" fill="#F9A745"/>
<path d="M203.826 220.928C208.127 223.296 211.026 227.706 211.026 232.755C211.026 240.312 204.547 246.438 196.566 246.438C192.84 246.438 189.439 245.101 186.875 242.906C189.496 246.595 193.793 249.004 198.646 249.004C206.628 249.004 213.102 242.501 213.102 234.484C213.102 228.297 209.248 223.021 203.826 220.928Z" fill="#F36728"/>
<ellipse cx="198.645" cy="234.485" rx="11.4122" ry="11.4634" fill="#F35E22"/>
<ellipse cx="198.644" cy="234.483" rx="10.9711" ry="11.0198" fill="#FBD13B"/>
<circle cx="196.419" cy="232.379" r="8" fill="#FDE965"/>
<path d="M203.229 224.471C206.023 226.345 207.853 229.422 207.853 232.901C207.853 238.61 202.939 243.242 196.881 243.242C194.026 243.242 191.431 242.214 189.479 240.533C191.438 243.526 194.813 245.502 198.646 245.502C204.709 245.502 209.615 240.566 209.615 234.484C209.615 230.042 206.998 226.215 203.229 224.471Z" fill="#FABF23"/>
<path d="M200.968 238.045C200.875 238.526 200.641 238.98 200.318 239.332C200.053 239.612 199.73 239.819 199.379 239.94C199.348 239.462 199.319 238.988 199.299 238.509C199.243 237.359 199.212 236.207 199.206 235.052C199.48 235.125 199.746 235.246 199.98 235.416C200.375 235.696 200.674 236.113 200.843 236.575C201.016 237.041 201.058 237.555 200.968 238.045ZM196.573 232.359C196.419 231.911 196.395 231.42 196.492 230.963C196.589 230.509 196.806 230.084 197.117 229.761C197.351 229.513 197.637 229.326 197.947 229.218C197.971 229.634 197.996 230.047 198.015 230.469C198.072 231.607 198.096 232.744 198.096 233.878C197.835 233.801 197.58 233.676 197.363 233.502C197 233.21 196.721 232.801 196.573 232.359ZM200.595 234.591C200.185 234.291 199.698 234.097 199.201 234.016C199.205 232.834 199.225 231.651 199.286 230.469C199.301 230.068 199.326 229.671 199.35 229.275L199.447 229.315C199.821 229.502 200.132 229.817 200.337 230.189C200.547 230.566 200.644 230.987 200.633 231.44V231.481C200.64 231.955 201.031 232.331 201.502 232.327C201.974 232.315 202.353 231.923 202.341 231.452V231.416C202.325 230.707 202.12 229.967 201.728 229.351C201.341 228.731 200.773 228.217 200.088 227.918C199.895 227.829 199.685 227.76 199.475 227.716C199.516 227.291 199.559 226.866 199.616 226.441V226.181C199.548 225.647 199.052 225.265 198.52 225.342C197.983 225.411 197.612 225.906 197.681 226.441C197.742 226.876 197.791 227.312 197.831 227.748C197.15 227.934 196.545 228.327 196.105 228.849C195.638 229.388 195.344 230.051 195.238 230.74C195.129 231.424 195.206 232.129 195.46 232.772C195.714 233.417 196.145 233.984 196.706 234.384C197.117 234.684 197.596 234.878 198.096 234.959C198.092 236.145 198.061 237.329 198.003 238.51C197.98 238.971 197.955 239.43 197.927 239.887L197.782 239.818C197.581 239.708 197.399 239.572 197.237 239.409C197.089 239.243 196.959 239.048 196.863 238.846C196.763 238.644 196.693 238.43 196.67 238.207C196.637 237.984 196.633 237.773 196.677 237.538L196.685 237.376C196.677 236.894 196.283 236.51 195.798 236.522C195.319 236.526 194.94 236.931 194.951 237.409V237.559C194.964 238.267 195.173 239.012 195.564 239.632C195.951 240.251 196.52 240.766 197.205 241.066C197.403 241.151 197.608 241.219 197.818 241.268C197.777 241.689 197.738 242.109 197.681 242.535V242.782C197.75 243.321 198.233 243.693 198.774 243.628C199.305 243.56 199.685 243.073 199.616 242.535C199.56 242.103 199.514 241.668 199.479 241.231C200.157 241.049 200.762 240.652 201.2 240.134C201.664 239.592 201.963 238.927 202.063 238.239C202.172 237.551 202.095 236.846 201.841 236.202C201.591 235.562 201.156 234.991 200.595 234.591Z" fill="#FDE965"/>
<path d="M237.091 234.74C237.091 242.756 230.613 249.259 222.635 249.259C220.334 249.259 218.193 248.652 216.234 247.756C214.775 247.097 211.884 244.793 211.884 244.793C211.884 244.635 208.175 239.707 208.175 234.739C208.175 226.718 214.646 220.215 222.635 220.215C224.708 220.215 225.888 219.955 227.675 220.745C228.747 221.223 230.533 222.523 231.448 223.232C234.878 225.888 237.091 230.055 237.091 234.739" fill="#F1511F"/>
<ellipse cx="221.291" cy="233.774" rx="14.4581" ry="14.5177" fill="#F68334"/>
<circle cx="216.01" cy="228.438" r="8" fill="#F9A745"/>
<path d="M226.474 220.215C230.775 222.589 233.665 226.997 233.665 232.046C233.665 239.603 227.194 245.729 219.21 245.729C215.48 245.729 212.082 244.392 209.518 242.197C212.143 245.887 216.436 248.292 221.289 248.292C229.271 248.292 235.75 241.793 235.75 233.775C235.75 227.589 231.895 222.313 226.474 220.215Z" fill="#F36728"/>
<ellipse cx="221.291" cy="233.775" rx="11.4143" ry="11.4629" fill="#F35E22"/>
<ellipse cx="221.289" cy="233.775" rx="10.9731" ry="11.0193" fill="#FBD13B"/>
<circle cx="219.065" cy="231.67" r="8" fill="#FDE965"/>
<path d="M225.873 223.763C228.669 225.633 230.492 228.71 230.492 232.192C230.492 237.902 225.578 242.53 219.523 242.53C216.669 242.53 214.073 241.505 212.117 239.82C214.081 242.813 217.455 244.793 221.289 244.793C227.347 244.793 232.262 239.858 232.262 233.775C232.262 229.329 229.64 225.508 225.873 223.763Z" fill="#FABF23"/>
<path d="M223.608 237.332C223.518 237.817 223.288 238.27 222.962 238.623C222.696 238.907 222.374 239.113 222.023 239.23C221.995 238.757 221.962 238.279 221.942 237.801C221.885 236.647 221.862 235.498 221.845 234.343C222.128 234.412 222.39 234.538 222.619 234.708C223.019 234.988 223.317 235.404 223.486 235.866C223.655 236.332 223.696 236.841 223.607 237.331M219.216 231.646C219.067 231.2 219.038 230.705 219.135 230.253C219.232 229.798 219.45 229.369 219.761 229.046C219.994 228.802 220.281 228.617 220.59 228.507C220.619 228.925 220.639 229.337 220.663 229.754C220.715 230.892 220.74 232.034 220.744 233.172C220.474 233.087 220.228 232.965 220.01 232.791C219.639 232.496 219.365 232.09 219.216 231.646ZM223.239 233.876C222.828 233.581 222.345 233.382 221.84 233.301C221.844 232.119 221.873 230.941 221.925 229.754C221.944 229.358 221.967 228.961 221.994 228.564L222.09 228.605C222.465 228.791 222.776 229.103 222.986 229.479C223.195 229.856 223.292 230.277 223.275 230.726V230.771C223.288 231.245 223.679 231.621 224.151 231.613C224.618 231.605 224.997 231.217 224.985 230.739V230.706C224.969 229.998 224.763 229.256 224.372 228.641C223.985 228.018 223.417 227.504 222.735 227.207C222.534 227.119 222.329 227.05 222.119 227.001C222.16 226.579 222.207 226.156 222.26 225.734V225.471C222.188 224.932 221.7 224.556 221.163 224.628C220.631 224.701 220.256 225.195 220.325 225.734C220.384 226.167 220.434 226.601 220.474 227.037C219.793 227.22 219.188 227.617 218.744 228.135C218.281 228.674 217.987 229.341 217.877 230.026C217.773 230.714 217.849 231.419 218.104 232.062C218.353 232.702 218.785 233.273 219.349 233.678C219.761 233.974 220.239 234.168 220.74 234.249C220.732 235.431 220.708 236.618 220.647 237.8C220.625 238.259 220.6 238.718 220.571 239.176L220.421 239.104C220.222 238.997 220.043 238.863 219.884 238.7C219.732 238.529 219.603 238.339 219.507 238.131C219.41 237.935 219.336 237.715 219.309 237.496C219.285 237.269 219.281 237.067 219.321 236.829L219.333 236.666C219.321 236.185 218.922 235.799 218.442 235.808C217.967 235.82 217.583 236.217 217.591 236.699L217.596 236.844C217.612 237.557 217.822 238.306 218.213 238.921C218.6 239.541 219.164 240.055 219.853 240.355C220.048 240.441 220.25 240.508 220.462 240.557C220.421 240.979 220.381 241.4 220.325 241.825V242.071C220.393 242.606 220.884 242.987 221.413 242.918C221.949 242.853 222.328 242.359 222.259 241.825C222.207 241.387 222.163 240.958 222.123 240.521C222.8 240.334 223.409 239.938 223.844 239.42C224.312 238.881 224.606 238.213 224.711 237.528C224.815 236.84 224.742 236.132 224.489 235.492C224.235 234.852 223.804 234.278 223.239 233.876Z" fill="#FDE965"/>
<path d="M69.8088 204.258C70.6271 204.545 71.5177 204.12 71.8046 203.302L95.4712 136.108C95.7581 135.286 95.3339 134.39 94.5156 134.103L60.2866 121.936C59.4765 121.648 58.5776 122.074 58.2918 122.896L34.6283 190.09C34.3383 190.908 34.7655 191.803 35.5798 192.094L69.8088 204.258Z" fill="#37B199"/>
<path d="M82.2285 132.496C79.3864 131.829 76.1088 131.432 73.1903 131.553C68.2399 131.764 63.7579 134.23 60.3028 137.712C56.4814 141.566 53.5021 146.511 51.0273 151.365L60.0005 125.892C60.2461 125.2 61.0087 124.832 61.6981 125.079L83.2883 132.748C82.9354 132.662 82.5821 132.578 82.2285 132.496Z" fill="#5CC8BF"/>
<path d="M34.6284 190.09L39.4457 176.395C39.131 178.845 39.615 181.254 42.4612 182.092C44.94 182.821 47.2703 182.874 48.9751 185.125C50.4756 187.101 51.8853 188.656 54.0793 189.858C56.3765 191.122 59.005 191.701 61.5045 192.401C63.4198 192.936 65.3744 194.013 67.4301 193.531C70.6148 192.778 72.5416 190.02 73.7996 187.166C75.4848 183.373 76.6055 179.282 77.9791 175.37C79.9997 169.621 81.5684 163.721 83.6076 157.988C84.5467 155.332 85.4497 152.631 86.5549 150.035C87.3496 148.17 88.2154 146.286 88.235 144.217C88.235 143.95 88.0699 143.78 87.8769 143.711C87.558 142.735 86.3692 142.836 85.1721 141.986C83.1442 140.545 82.3547 138.111 83.3217 135.519C83.7005 134.495 84.104 133.596 84.9254 132.843C85.3248 132.483 85.7118 132.127 86.0348 131.697C86.1586 131.532 86.2515 131.357 86.3134 131.188L94.5157 134.102C95.3341 134.389 95.7582 135.284 95.4713 136.107L71.8047 203.301C71.5178 204.118 70.6272 204.545 69.8089 204.256L35.5799 192.093C34.7646 191.803 34.3384 190.907 34.6284 190.09Z" fill="#27A188"/>
<ellipse cx="65.0497" cy="163.097" rx="12.9051" ry="12.9625" fill="#5CC8BF"/>
<path d="M42.2312 190.293C43.9649 190.908 45.8679 189.997 46.4768 188.256C47.0929 186.52 46.1858 184.607 44.4489 183.992C42.7193 183.377 40.8205 184.288 40.2033 186.029C39.5914 187.771 40.4985 189.678 42.2312 190.293ZM85.6479 142.206C87.3817 142.821 89.2805 141.906 89.8925 140.169C90.5096 138.428 89.6025 136.517 87.8646 135.901C86.1309 135.286 84.232 136.197 83.6232 137.938C83.004 139.679 83.9142 141.591 85.6479 142.206Z" fill="#58C5A3"/>
<path d="M59.0362 164.581C58.3066 164.347 57.6946 163.946 57.2065 163.395C56.7225 162.849 56.4005 162.161 56.3118 161.456C56.2189 160.755 56.3685 160.018 56.7225 159.391C57.0816 158.763 57.6585 158.253 58.3551 157.937C59.0445 157.626 59.8515 157.507 60.6327 157.613C61.4191 157.722 62.1931 158.042 62.8215 158.536C63.4511 159.033 63.9423 159.71 64.2003 160.468C64.4624 161.225 64.483 162.055 64.2374 162.821C64.0919 163.277 64.3375 163.767 64.7937 163.913C65.2323 164.059 65.7039 163.828 65.8659 163.399C66.289 162.297 66.3251 161.042 65.9949 159.909C65.6719 158.771 65.0073 157.751 64.1198 156.978C63.2323 156.2 62.1487 155.678 60.9877 155.459C59.8267 155.24 58.5935 155.341 57.4645 155.783C56.3355 156.22 55.3118 157.018 54.6265 158.083C53.9413 159.136 53.6069 160.427 53.7081 161.698C53.7958 162.97 54.3004 164.181 55.0703 165.16C55.836 166.14 56.9083 166.902 58.0372 167.327L58.0857 167.348C58.8391 167.631 59.6781 167.246 59.964 166.488C60.2457 165.732 59.8628 164.885 59.1095 164.602L59.0362 164.581Z" fill="#27A188"/>
<path d="M71.0584 161.653C71.4609 161.725 71.7963 161.843 72.1347 162.022C72.4774 162.192 72.7797 162.426 73.0532 162.697C73.3243 162.974 73.553 163.284 73.7395 163.629C73.9087 163.977 74.0253 164.354 74.0821 164.734C74.1987 165.495 74.0573 166.317 73.6507 166.994C73.2514 167.674 72.6146 168.224 71.8654 168.553C71.1151 168.885 70.2555 168.999 69.4258 168.872C68.595 168.739 67.7932 168.379 67.1523 167.84C66.5073 167.301 66.0109 166.58 65.786 165.787C65.5517 164.998 65.5682 164.147 65.8665 163.398C66.0471 162.952 65.8334 162.447 65.3907 162.268C64.9428 162.09 64.4433 162.305 64.2617 162.75V162.759L64.238 162.819C63.8149 163.921 63.7777 165.176 64.109 166.306C64.431 167.447 65.0966 168.472 65.9831 169.244C66.8654 170.019 67.9542 170.544 69.1152 170.763C70.2761 170.982 71.5135 170.885 72.6425 170.444C73.7715 170.006 74.7993 169.208 75.4846 168.144C76.1739 167.086 76.5042 165.791 76.4072 164.52C76.3195 163.245 75.8148 162.03 75.0449 161.049C74.2792 160.066 73.207 159.305 72.0739 158.879L71.8406 158.791C71.0749 158.498 70.2204 158.887 69.9294 159.661C69.6435 160.43 70.0305 161.293 70.7963 161.579L71.0584 161.653Z" fill="#27A188"/>
<path d="M51.617 160.091C53.8657 160.564 56.0628 161.18 58.2475 161.845C60.4323 162.501 62.5922 163.229 64.7377 163.999C66.8863 164.768 69.0184 165.574 71.1309 166.445C73.2392 167.306 75.3352 168.217 77.3919 169.25C78.2103 169.668 79.2093 169.335 79.6252 168.51C80.0359 167.684 79.7057 166.679 78.8873 166.266C78.7624 166.205 78.621 166.157 78.492 166.129C76.2464 165.634 74.0452 165.014 71.8646 164.351C69.6799 163.698 67.5148 162.979 65.3631 162.221C63.2176 161.464 61.0803 160.666 58.9689 159.795C56.8564 158.933 54.7604 158.018 52.713 156.965C51.8977 156.548 50.8946 156.872 50.4715 157.694C50.0556 158.516 50.3786 159.521 51.197 159.946C51.3301 160.01 51.4767 160.063 51.617 160.091Z" fill="#27A188"/>
<path d="M83.3176 217.333C83.9708 217.9 84.9584 217.823 85.5188 217.163L131.748 163.087C132.308 162.427 132.233 161.439 131.578 160.872L104.03 137.116C103.372 136.549 102.389 136.622 101.824 137.282L55.5984 191.357C55.0349 192.018 55.1071 193.01 55.7635 193.572L83.3176 217.333Z" fill="#37B199"/>
<path d="M120.695 154.915C118.288 153.263 115.373 151.708 112.608 150.761C107.912 149.158 102.853 149.834 98.3739 151.83C93.4234 154.037 88.8724 157.563 84.8167 161.196L102.34 140.699C102.816 140.136 103.663 140.072 104.218 140.554L121.594 155.539C121.296 155.329 120.996 155.121 120.695 154.915Z" fill="#5CC8BF"/>
<path d="M55.5984 191.359L65.0204 180.34C63.8388 182.507 63.427 184.932 65.7779 186.746C67.8336 188.326 69.9863 189.216 70.7645 191.937C71.4538 194.322 72.2113 196.282 73.8243 198.206C75.5085 200.213 77.75 201.704 79.8346 203.267C81.427 204.461 82.8614 206.174 84.9502 206.466C88.1906 206.923 90.977 205.049 93.1813 202.842C96.1121 199.914 98.6281 196.505 101.316 193.359C105.267 188.73 108.851 183.799 112.818 179.191C114.652 177.058 116.458 174.862 118.422 172.847C119.835 171.396 121.315 169.951 122.081 168.027C122.178 167.78 122.085 167.562 121.932 167.429C121.984 166.4 120.835 166.061 120.025 164.837C118.647 162.756 118.796 160.201 120.626 158.131C121.343 157.318 122.045 156.626 123.089 156.225C123.585 156.034 124.077 155.84 124.528 155.556C124.705 155.447 124.855 155.318 124.976 155.18L131.578 160.873C132.232 161.44 132.308 162.427 131.749 163.088L85.5188 217.163C84.9584 217.824 83.9708 217.9 83.3176 217.333L55.7635 193.573C55.1071 193.01 55.0349 192.018 55.5984 191.358" fill="#27A188"/>
<ellipse cx="93.6712" cy="177.223" rx="12.9023" ry="12.9597" fill="#5CC8BF"/>
<path d="M62.6181 194.308C64.0113 195.511 66.1124 195.349 67.3095 193.949C68.5066 192.547 68.3456 190.438 66.9545 189.235C65.5562 188.033 63.4561 188.195 62.2589 189.595C61.0618 190.992 61.2197 193.102 62.6181 194.308ZM120.393 165.212C121.787 166.414 123.887 166.252 125.084 164.855C126.281 163.451 126.12 161.341 124.726 160.139C123.331 158.936 121.231 159.097 120.038 160.494C118.837 161.896 118.998 164.009 120.393 165.212Z" fill="#58C5A3"/>
<path d="M87.5335 176.425C86.937 175.943 86.5097 175.348 86.2517 174.656C85.9968 173.967 85.9452 173.215 86.1145 172.522C86.2837 171.838 86.6821 171.202 87.2435 170.749C87.7997 170.295 88.5211 170.027 89.2827 169.983C90.0443 169.938 90.8348 170.125 91.5283 170.509C92.2259 170.894 92.8265 171.473 93.2331 172.166C93.6449 172.858 93.8585 173.669 93.8255 174.466C93.7976 175.267 93.52 176.045 93.0112 176.673C92.7089 177.041 92.7656 177.587 93.1361 177.896C93.4953 178.186 94.0236 178.143 94.3301 177.803C95.1155 176.928 95.5995 175.773 95.7047 174.595C95.809 173.417 95.551 172.222 95.0071 171.178C94.4633 170.137 93.6366 169.25 92.6335 168.627C91.6284 168.003 90.4395 167.646 89.23 167.65C88.0206 167.65 86.7791 168.024 85.7553 168.765C84.7399 169.501 83.9659 170.586 83.5944 171.805C83.228 173.024 83.2517 174.332 83.6274 175.526C83.9855 176.717 84.711 177.818 85.6098 178.624L85.6511 178.661C86.2517 179.199 87.1702 179.146 87.711 178.539C88.2424 177.935 88.1898 177.013 87.5892 176.474L87.5335 176.425Z" fill="#27A188"/>
<path d="M99.7971 178.056C100.143 178.272 100.409 178.502 100.667 178.79C100.925 179.073 101.127 179.402 101.28 179.757C101.433 180.11 101.534 180.486 101.587 180.871C101.619 181.259 101.595 181.648 101.506 182.029C101.341 182.778 100.918 183.495 100.288 183.976C99.6712 184.466 98.8848 184.749 98.0675 184.787C97.2491 184.823 96.406 184.617 95.6764 184.199C94.9509 183.77 94.3348 183.142 93.9271 182.41C93.5205 181.673 93.3141 180.822 93.3905 180C93.4597 179.179 93.7785 178.393 94.3296 177.802C94.6526 177.45 94.6372 176.898 94.2863 176.571C93.9354 176.246 93.3915 176.267 93.0603 176.615L93.0561 176.624L93.0118 176.672C92.2264 177.546 91.7424 178.701 91.6372 179.879C91.5329 181.053 91.7868 182.252 92.3307 183.292C92.8755 184.337 93.7011 185.224 94.7094 185.847C95.7094 186.475 96.8982 186.832 98.1119 186.832C99.3255 186.832 100.567 186.459 101.587 185.713C102.61 184.981 103.388 183.891 103.756 182.669C104.13 181.45 104.098 180.134 103.727 178.939C103.369 177.745 102.638 176.649 101.739 175.838L101.554 175.672C100.942 175.121 100.006 175.175 99.4586 175.789C98.9096 176.401 98.9663 177.348 99.5752 177.895L99.7971 178.056Z" fill="#27A188"/>
<path d="M82.2255 169.549C84.1512 170.804 85.986 172.177 87.7796 173.586C89.5815 174.991 91.3348 176.453 93.0603 177.95C94.7817 179.449 96.4865 180.972 98.1356 182.55C99.7971 184.122 101.43 185.73 102.969 187.438C103.582 188.122 104.634 188.175 105.319 187.556C105.996 186.936 106.049 185.879 105.433 185.195C105.34 185.09 105.231 184.997 105.122 184.923C103.203 183.652 101.376 182.276 99.5794 180.866C97.7734 179.461 96.0149 178.004 94.2853 176.518C92.5484 175.031 90.8477 173.518 89.1873 171.938C87.5299 170.367 85.9055 168.756 84.373 167.035C83.7642 166.343 82.7115 166.281 82.0232 166.897C81.338 167.513 81.2729 168.566 81.8859 169.257C81.9912 169.367 82.1089 169.468 82.2255 169.549Z" fill="#27A188"/>
<path d="M111.572 233.455C110.128 226.747 108.294 220.037 106.061 213.328C105.944 213.025 105.815 212.729 105.686 212.43C105.545 212.785 105.395 213.146 105.238 213.503C103.525 217.483 98.8565 217.458 95.2373 218.281C92.8709 218.815 90.5118 219.393 88.1465 219.912C85.4045 220.515 82.6594 221.083 79.9019 221.585C77.4664 222.03 75.0206 222.439 72.5542 222.677C71.0413 222.823 69.3127 223.05 67.8246 222.628C66.3375 223.05 64.6079 222.823 63.096 222.677C60.6327 222.439 58.1817 222.029 55.7431 221.585C52.9856 221.082 50.2447 220.515 47.5037 219.912C45.1374 219.393 42.7751 218.815 40.4088 218.28C36.7927 217.458 32.1281 217.482 30.4068 213.501C30.254 213.146 30.1085 212.786 29.9599 212.43C29.8351 212.729 29.7061 213.029 29.5925 213.328C27.3552 220.037 25.5213 226.747 24.0776 233.456C22.0951 241.911 31.9548 249.883 45.1012 250.531C60.2508 251.184 75.4001 251.184 90.549 250.531C103.694 249.883 113.555 241.911 111.571 233.456" fill="#EF2FA1"/>
<path d="M48.9957 227.788C52.878 227.739 66.5601 227.894 69.3011 226.998C61.2423 226.424 53.2361 225.528 45.392 223.488C40.1113 222.111 34.7573 220.35 30.3229 217.18C34.9998 223.071 41.1794 227.894 48.9957 227.788Z" fill="#F140A9"/>
<path d="M109.081 194.569C109.081 192.695 107.56 191.172 105.689 191.172C105.689 191.172 79.5636 189.585 67.8258 189.981C56.0859 189.585 29.9559 191.172 29.9559 191.172C28.085 191.172 26.5731 192.695 26.5731 194.569C26.5731 194.569 26.1789 203.696 30.4069 213.503C32.1283 217.484 36.7929 217.459 40.409 218.282C42.7753 218.816 45.1375 219.394 47.5039 219.912C50.2448 220.516 52.9858 221.084 55.7433 221.585C58.1818 222.031 60.6328 222.44 63.0962 222.678C64.608 222.824 66.3366 223.051 67.8247 222.629C69.3129 223.051 71.0414 222.824 72.5533 222.678C75.0198 222.44 77.4676 222.03 79.9021 221.585C82.6596 221.083 85.4047 220.516 88.1466 219.912C90.512 219.394 92.8711 218.816 95.2364 218.281C98.8566 217.459 103.525 217.483 105.238 213.502C109.475 203.696 109.081 194.569 109.081 194.569Z" fill="#EF2FA1"/>
<path d="M111.572 233.455C110.128 226.747 108.294 220.037 106.061 213.328C105.944 213.025 105.815 212.729 105.686 212.43C105.545 212.785 105.395 213.146 105.238 213.503C103.525 217.483 98.8565 217.458 95.2373 218.281C95.0237 218.325 94.8059 218.378 94.5923 218.43C95.9782 223.289 96.8327 228.743 95.2321 233.282C93.5716 237.996 88.194 239.959 82.3209 241.117C73.291 242.89 64.0475 244.26 54.6667 244.26C47.6647 244.26 39.6544 243.963 33.5956 240.963C28.6452 238.51 25.9486 234.869 25.1426 230.496C25.0817 230.169 25.0332 229.841 24.9847 229.508C24.671 230.825 24.3604 232.141 24.0776 233.456C22.0951 241.911 31.9548 249.883 45.1012 250.531C60.2508 251.184 75.4001 251.184 90.549 250.531C103.694 249.883 113.555 241.911 111.571 233.456" fill="#EE1796"/>
<path d="M33.3587 209.611C33.6931 204.959 34.6559 199.873 38.2565 196.582C41.2183 193.872 45.0284 192.54 48.9345 191.73C40.3483 192.058 32.5238 192.536 32.5238 192.536C30.8706 192.536 29.5331 193.88 29.5331 195.545C29.5331 195.545 29.1822 203.619 32.9232 212.292C33.2947 213.15 33.2132 211.619 33.3587 209.611Z" fill="#F140A9"/>
<path d="M109.081 194.569C109.081 192.695 107.56 191.172 105.689 191.172C105.689 191.172 79.5636 189.585 67.8258 189.981C56.0859 189.585 29.956 191.172 29.956 191.172C29.3027 191.172 28.698 191.366 28.182 191.691C35.0674 191.383 53.6267 190.622 62.9713 190.872C74.5812 190.561 100.425 191.812 100.425 191.812C102.276 191.812 103.771 193.006 103.771 194.484C103.771 194.484 104.166 201.664 99.9733 209.381C98.2808 212.511 93.6647 212.495 90.0848 213.138C87.7421 213.559 85.4129 214.013 83.0714 214.422C80.3624 214.896 77.6493 215.341 74.9197 215.738C72.509 216.086 70.0869 216.407 67.6473 216.592C66.1561 216.71 62.6607 216.876 58.2954 216.592C55.8558 216.443 53.4337 216.086 51.023 215.738C48.2985 215.341 45.5803 214.896 42.8754 214.422C40.5297 214.013 38.1954 213.559 35.8579 213.138C33.9384 212.794 31.7331 212.633 29.827 212.081C30.0128 212.556 30.2016 213.03 30.407 213.503C32.1283 217.484 36.7929 217.459 40.409 218.282C42.7753 218.816 45.1376 219.394 47.5039 219.912C50.2449 220.516 52.9858 221.084 55.7433 221.585C58.1819 222.031 60.6411 222.334 63.0962 222.678C66.6401 223.168 71.0425 222.824 72.5534 222.678C75.0198 222.44 77.4677 222.03 79.9021 221.585C82.6596 221.083 85.4047 220.516 88.1467 219.912C90.512 219.394 92.8711 218.816 95.2364 218.281C98.8567 217.459 103.525 217.483 105.238 213.502C109.475 203.696 109.081 194.569 109.081 194.569Z" fill="#EE1796"/>
<circle cx="71.8141" cy="219.064" r="8" fill="#88B3E3"/>
<path d="M69.7562 211.562C70.3609 212.251 70.7314 213.148 70.7314 214.133C70.7314 216.276 69.0028 218.008 66.8738 218.008C65.8862 218.008 64.9998 217.636 64.3145 217.032C64.9998 218.271 66.3135 219.114 67.8253 219.114C70.039 219.114 71.8325 217.312 71.8325 215.089C71.8325 213.57 70.9935 212.251 69.7562 211.562Z" fill="#6194D5"/>
</svg>
